<?xml version="1.0" encoding="utf-8"?>
<!-- Generator: Adobe Illustrator 26.0.1, SVG Export Plug-In . SVG Version: 6.00 Build 0)  -->
<svg version="1.1" id="Layer_1" xmlns="http://www.w3.org/2000/svg" xmlns:xlink="http://www.w3.org/1999/xlink" x="0px" y="0px"
	 viewBox="0 0 996 279" style="enable-background:new 0 0 996 279;" xml:space="preserve">
<style type="text/css">
	.st0{fill:#FFFFFF;}
	.st1{fill:#00C1E0;}
</style>
<path class="st0" d="M6.4,56.1h35c3.1,0,5.7,2.5,5.7,5.5V218c0,3-2.6,5.5-5.7,5.5h-35c-3.1,0-5.7-2.5-5.7-5.5V61.6
	C0.6,58.6,3.2,56.1,6.4,56.1z"/>
<path class="st0" d="M90.4,0h34.4c3.1,0,5.6,2.5,5.6,5.5v111.6c0,3-2.5,5.5-5.6,5.5H90.4c-3.1,0-5.6-2.5-5.6-5.5V5.5
	C84.8,2.5,87.3,0,90.4,0z"/>
<path class="st1" d="M90.4,157h34.4c3.1,0,5.6,2.5,5.6,5.5v110.8c0,3-2.5,5.5-5.6,5.5H90.4c-3.1,0-5.6-2.5-5.6-5.5V162.5
	C84.8,159.5,87.3,157,90.4,157z"/>
<path class="st0" d="M173.8,56.1h35c3.1,0,5.7,2.5,5.7,5.5V218c0,3-2.6,5.5-5.7,5.5h-35c-3.1,0-5.7-2.5-5.7-5.5V61.6
	C168.1,58.6,170.7,56.1,173.8,56.1z"/>
<path class="st0" d="M278.7,219.6c0,2.4,2.3,4.6,4.7,4.6h23.1c2.7,0,4.7-2.2,4.7-4.6v-66.9h80.9v66.9c0,2.4,2,4.6,4.7,4.6h22.8
	c2.4,0,4.7-2.2,4.7-4.6V59c0-2.4-2.3-4.6-4.7-4.6h-22.8c-2.7,0-4.7,2.2-4.7,4.6v64.3h-80.9V59c0-2.4-2-4.6-4.7-4.6h-23.1
	c-2.4,0-4.7,2.2-4.7,4.6V219.6z M457.2,139.6c0,48.5,39.5,87.1,89.2,87.1c49.7,0,89.3-38.6,89.3-87.1c0-48.5-39.7-87.5-89.3-87.5
	C496.8,52.1,457.2,91.1,457.2,139.6z M489.6,139.6c0-30.5,25.5-56,56.8-56c31.2,0,57.1,25.5,57.1,56s-25.8,55.5-57.1,55.5
	C515.2,195.1,489.6,170.2,489.6,139.6z M668.3,219.6c0,2.4,2.3,4.6,4.7,4.6h22.7c2.7,0,4.7-2.2,4.7-4.6V115.4h0.3l103.7,111.4h6
	c2.4,0,4.7-2,4.7-4.3V59c0-2.4-2.3-4.6-4.7-4.6h-22.8c-2.7,0-4.7,2.2-4.7,4.6v100.2h-0.3L679.3,52.1H673c-2.4,0-4.7,2-4.7,4.3V219.6
	z M860.2,218.4c0,3.2,2.4,5.9,6,5.9H888c3.3,0,6-2.6,6-5.9v-74l64.8,78.1c0.4,0.7,2,1.7,4.4,1.7h27.1c5,0,7-5.3,4.4-8.5l-69.5-81.3
	L990,62.9c3.3-3.6,0.7-8.8-4-8.8h-24.8c-2.3,0-3.7,1.3-4.7,2.4L894,125.8V60.3c0-3.2-2.7-5.9-6-5.9h-21.8c-3.4,0-6,2.6-6,5.9V218.4z
	"/>
</svg>
