<?xml version="1.0" encoding="utf-8"?>
<!-- Generator: Adobe Illustrator 18.1.1, SVG Export Plug-In . SVG Version: 6.00 Build 0)  -->
<svg version="1.1" id="Layer_1" xmlns="http://www.w3.org/2000/svg" xmlns:xlink="http://www.w3.org/1999/xlink" x="0px" y="0px"
	 viewBox="37.3 293.1 537.4 205.9" enable-background="new 37.3 293.1 537.4 205.9" xml:space="preserve">
<g>
	<path fill="#CB2026" d="M562.9,343h-10.3v-1.6H566c0,0,1.2-11.5,3.5-16.4l-7.8-0.2v-4.2h-2.4v-1.6h-5.8v-25.9H551v25.8h-7.5v0.9h10
		v0.9H542v1.6h11.6v0.9H542v1.7h-7.9c0.4,0.8,0.8,1.6,1.1,2.4h20.1v3.4h-19.4c0.8,3.6,1.2,7.2,1.6,10.8h2.9v1.6
		c3.1,8,2.6,28.8,2.6,28.8c-0.4,22.9-2.2,45.8-5.5,68.4l0,0v-51.6h1.6v-3.3h-19.8v-7.5h1V377h0.9v-2.4h-29v-4.2h0.9v-3.6l-9.3-6.2
		l-10,6.2v3.4h0.9v4.1h-30.8v2.4h1.6v1.6h1.6v6.6h-21.6v2.4h0.9v3.3h2.4v36.8c-6-19.5-9.3-39.6-9.7-60h0.5v-0.7h1.6v-0.9h0.9v-2.4
		h-0.9V362h-1.6v-0.9h-0.9v-1.6h-2.4v-10.7h-3.3v10.8h-3.3v1.6h-0.8v1.6h-1.6v0.9h8.3v0.9H408v3.3h1.4c0,0,2.4,24.9-10.1,60.7h-2.1
		v-45.7h-5v-7.5h-2.4V373H385v-6.7h-8.3v6.6h-4.5l-6.3,6.7v25.2l-11.7-0.5l-0.7-25.7h-4.4v-15.7h-5v-11.4l-10-4.8v-12.1H329
		l0.3,12.1l-10,5.6v10.6h-5.8v14.9h-5V391l-33.9-34.3l-7.1,7.9h4.8l1,4.1h-9.9l-4,5h15.1l1,5h-20.1l-4,4.1h25.3l1,5h-30.4l-4,4.1
		h35.6l1,5h-40.6l-4,4.1H281l1,5h-51.1l-4,4.9H283l1,4.1h-61.2l-4,5h66.3l1,4.1h-71.2l-4.1,5h76.7l1,4.1h-81.8l-4,5h86.8l1,5h-91.9
		l-4.4,5h206.6c1.6-4.1,7.2-7.6,13.6-7.6s11.9,3.4,13.6,7.6h139c0,0-5.8-29.7-6.8-77C560.2,371.5,560,352.1,562.9,343 M316.7,398.4
		l-3.3-3v-12.6h3.3V398.4z M323.4,405l-3.3-3v-34h3.3V405z M329.2,411.4l-2.4-3v-55.4h2.4V411.4z M373.2,431h-3.3v-5.8h3.3V431z
		 M373.2,419.4h-3.3v-5h3.3V419.4z M373.2,408.5h-3.3v-5h3.3V408.5z M373.2,396.9h-3.3v-5h3.3V396.9z M373.2,386.1h-3.3v-5h3.3
		V386.1z M380.7,431h-3.3v-5.8h3.3V431z M380.7,419.4h-3.3v-5h3.3V419.4z M380.7,408.6h-3.3v-5h3.3V408.6z M380.7,396.9h-3.3v-5h3.3
		V396.9z M380.7,386.2h-3.3v-5h3.3V386.2z M399.4,437.8l-1.2-0.5c9.3-20.7,14-43.2,13.8-65.9h1.4
		C413.5,394.2,408.8,416.9,399.4,437.8 M408.2,425.2c2.3-4.9,4.3-10,5.8-15.3c1.6,5.2,3.6,10.3,5.8,15.2L408.2,425.2z M438.1,442.6
		h-2.4v-42.4h2.4V442.6z M445.6,442.6h-2.4v-42.4h2.4V442.6z M453.1,442.6h-2.4v-42.4h2.4V442.6z M460.6,442.6h-3.3v-42.4h3.3V442.6
		z M468,442.6h-3.3v-42.4h3.3V442.6z M474.7,442.6h-2.4v-42.4h2.4V442.6z M474.7,395.3h-39.2v-4.1h39L474.7,395.3z M474.7,384.5
		h-20.7v-4.1h20.8L474.7,384.5L474.7,384.5z M482.1,442.6h-3.3v-73.8h3.3L482.1,442.6L482.1,442.6z M545.7,437.3l-1.9,0.3
		c5.7-73.7,1.6-88.3,1.6-88.5l1.9,0.2C547.5,349.9,551.4,363.2,545.7,437.3"/>
	<path fill="#231F20" d="M45.2,486.6h12.6l-1.2,5.5H37.3l6.2-28.8h6.7L45.2,486.6z"/>
	<path fill="#231F20" d="M69.2,486.3l-3,5.8h-7.1l15.7-28.8h6.9l4.1,28.8h-6.5l-0.6-5.8H69.2z M77.5,475l-0.3-4.4l-0.2,0.5l-0.5,1.1
		c-0.5,1-0.7,1.5-1.3,2.6l-3,6h6.1L77.5,475z"/>
	<path fill="#231F20" d="M109.3,472.5c0-3.1-1.7-4.6-5.2-4.6c-3.1,0-5.3,1.4-5.3,3.3c0,1.1,0.7,1.6,3,2.6l5.5,2.1
		c4.8,1.8,6.4,3.7,6.4,7.2c-0.1,3-1.5,5.8-3.9,7.6c-2.6,1.7-5.8,2.5-9,2.4c-2.8,0.1-5.5-0.5-8.1-1.6c-2.8-1.2-4.5-4-4.2-7
		c0-0.5,0-0.9,0-1.7H95c0,2.1,0,2.6,0.7,3.3c1.3,1.3,3.2,2,5.1,1.8c3.7,0,5.9-1.5,5.9-3.9c0-1.2-0.5-1.7-2.7-2.6l-5.7-2.2
		c-1.7-0.5-3.3-1.4-4.7-2.6c-1.2-1.2-1.8-2.8-1.7-4.5c0-5.8,4.8-9.4,12.5-9.4c3.7-0.3,7.3,1,10,3.6c1.2,1.9,1.6,4,1.3,6.2
		L109.3,472.5z"/>
	<path fill="#231F20" d="M158.1,463.4l-15.7,28.8H136l-4-28.8h6.9l1.3,14.1c0.2,2.6,0.2,2.9,0.3,3.3c0.1,0.5,0,1.4,0,2.4l2.7-5.2
		l7.4-14.5L158.1,463.4z"/>
	<path fill="#231F20" d="M181.9,468.9h-14.9l-1,5.1h13.8l-1.2,5.5h-13.7l-1.5,7.2h15.6l-1.2,5.5h-22.2l6.2-28.8h21.4L181.9,468.9z"
		/>
	<path fill="#231F20" d="M208.6,492.2h-5.5l0.6-2.7c-2.1,2.3-5.1,3.6-8.2,3.4c-3,0.1-5.8-0.9-8-2.7c-2.5-2.3-3.8-5.7-3.6-9.1
		c0-4.4,1.3-8.6,3.8-12.1c3-4,7.7-6.4,12.8-6.2c3.8-0.2,7.5,1.2,10,4.1c1.3,1.8,2,4,1.9,6.2h-6.5v-0.6c-0.2-2.6-2.5-4.7-5.1-4.5
		c-0.1,0-0.2,0-0.2,0c-3.3,0.1-6.2,1.9-7.7,4.8c-1.3,2.5-2,5.3-2.1,8.1c-0.3,3.5,2.3,6.6,5.8,6.9c0.2,0,0.5,0,0.7,0
		c2.3,0,4.6-1.1,6-3c0.7-1,1.2-2.2,1.4-3.4h-5.9l1.2-5.3h12.4L208.6,492.2z"/>
	<path fill="#231F20" d="M221.9,486.3l-3,5.8h-7.1l15.7-28.8h6.9l4.1,28.8H232l-0.6-5.8H221.9z M230.1,475l-0.3-4.4l-0.2,0.5
		l-0.5,1.1c-0.5,1-0.7,1.5-1.3,2.6l-3,6h6.1L230.1,475z"/>
	<path fill="#231F20" d="M262.1,472.5c0-3.1-1.7-4.6-5.2-4.6c-3.1,0-5.3,1.4-5.3,3.3c0,1.1,0.7,1.6,3,2.6l5.5,2.1
		c4.8,1.8,6.4,3.7,6.4,7.2c-0.1,3-1.5,5.8-3.9,7.6c-2.6,1.7-5.8,2.5-9,2.4c-2.8,0.1-5.5-0.5-8.1-1.6c-2.8-1.2-4.5-4-4.2-7
		c0-0.5,0-0.9,0-1.7h6.5c0,2.1,0,2.6,0.7,3.3c1.3,1.3,3.2,2,5.1,1.8c3.7,0,5.9-1.5,5.9-3.9c0-1.2-0.5-1.7-2.7-2.6l-5.7-2.2
		c-1.7-0.5-3.3-1.4-4.7-2.6c-1.2-1.2-1.8-2.8-1.7-4.5c0-5.8,4.8-9.4,12.5-9.4c3.7-0.3,7.3,1,10,3.6c1.2,1.9,1.6,4,1.3,6.2
		L262.1,472.5z"/>
	<path fill="#231F20" d="M288.9,492.2h-6.5l6.2-28.8h9c4.8,0,7.2,0.5,8.9,1.9c1.6,1.5,2.5,3.5,2.4,5.7c0,3.3-1.3,6.4-3.7,8.6
		c-2.6,2.1-6,3.1-9.4,2.7h-4.8L288.9,492.2z M295.4,476.8c1.7,0.2,3.4-0.2,4.8-1.2c1.1-0.9,1.7-2.2,1.7-3.5c0-2.3-1.2-3.1-4.4-3.1
		h-3.7l-1.6,7.9L295.4,476.8z"/>
	<path fill="#231F20" d="M314.7,486.3l-3,5.8h-7.1l15.7-28.8h6.9l4.1,28.8h-6.5l-0.6-5.8H314.7z M323,475l-0.3-4.4l-0.2,0.5
		l-0.5,1.1c-0.5,1-0.7,1.5-1.3,2.6l-3,6h6.1L323,475z"/>
	<path fill="#231F20" d="M340.5,492.2h-6.4l6.2-28.8h11.7c2.6-0.3,5.3,0.2,7.6,1.6c1.9,1.2,3,3.4,3,5.7c-0.1,3.7-2.7,6.8-6.3,7.5
		c1.7,0.7,2.7,2.6,2.4,4.4c0,0.9-0.1,1.9-0.2,2.9l-0.2,3c0,0.7-0.2,1.3-0.2,1.6c0,0.9,0.2,1.6,0.5,2.4h-6.7
		c-0.2-0.7-0.2-1.4-0.2-2.1c0-0.6,0-1.2,0.2-1.9l0.3-3c0.1-0.5,0.1-1.1,0.2-1.6c0-2-0.9-2.7-3.5-2.7H343L340.5,492.2z M348.6,475.7
		c1.9,0.2,3.7-0.2,5.5-0.9c1.2-0.6,2-1.9,1.9-3.3c0-2.2-1.2-2.8-5.1-2.8h-5.4l-1.6,7.1H348.6z"/>
	<path fill="#231F20" d="M389.2,492.2H382l-6.2-12.5l-3.8,3.4l-1.9,9h-6.5l6.2-28.8h6.5l-2.4,11.1l11.6-11.1h8.4l-13.2,12.1
		L389.2,492.2z"/>
	<path fill="#231F20" d="M399.2,492.2h-6.8l6.2-28.8h6.7L399.2,492.2z"/>
	<path fill="#231F20" d="M422.3,492.2l-5.8-15.8c-0.4-1-0.7-2-0.9-3.1c-0.1,1.2-0.2,2.5-0.5,3.7l-3.2,15.3h-6.5l6.2-28.8h6.5l5.3,14
		c0.6,1.6,1.2,3.2,1.6,4.8c0.1-0.2,0.1-0.5,0.2-0.9c0.2-1.4,0.3-1.9,0.7-4l3-14h6.5l-6.2,28.8L422.3,492.2z"/>
	<path fill="#231F20" d="M462,492.2h-5.5l0.6-2.7c-2.1,2.3-5.1,3.6-8.2,3.4c-3,0.1-5.8-0.9-8-2.7c-2.5-2.3-3.8-5.7-3.6-9.1
		c0-4.4,1.3-8.6,3.8-12.1c3-4,7.7-6.4,12.8-6.2c3.8-0.2,7.5,1.2,10,4.1c1.3,1.8,2,4,1.9,6.2h-6.5v-0.6c-0.2-2.6-2.5-4.7-5.1-4.5
		c-0.1,0-0.2,0-0.2,0c-3.3,0.1-6.2,1.9-7.7,4.8c-1.3,2.5-2,5.3-2.1,8.1c-0.4,3.5,2.2,6.6,5.6,7c0.3,0,0.6,0.1,0.9,0
		c2.3,0,4.6-1.1,6-3c0.7-1,1.2-2.2,1.4-3.4H452l1.2-5.3h12.4L462,492.2z"/>
	<path fill="#231F20" d="M475.7,486.2l-1.1,5.1c-1.1,5.1-3.4,7.6-7.8,7.6l0.6-2.7c1.9-0.2,3-1.4,3.8-4h-3l1.3-6.1L475.7,486.2z"/>
	<path fill="#231F20" d="M500,492.2h-6.8l6.2-28.8h6.7L500,492.2z"/>
	<path fill="#231F20" d="M523.2,492.2l-5.8-15.8c-0.4-1-0.7-2-0.9-3.1c-0.1,1.2-0.2,2.5-0.5,3.7l-3.2,15.3h-6.5l6.2-28.8h6.5l5.3,14
		c0.6,1.6,1.2,3.2,1.6,4.8c0.1-0.2,0.1-0.5,0.2-0.9c0.2-1.4,0.3-1.9,0.7-4l3-14h6.5l-6.1,28.7L523.2,492.2L523.2,492.2z"/>
	<path fill="#231F20" d="M559.6,473.6c0.2-1.2-0.1-2.5-0.5-3.6c-1-1.5-2.6-2.3-4.4-2.2c-3.2,0.1-6.1,1.9-7.6,4.8
		c-1.4,2.3-2.1,5.1-2.2,7.8c0,4.5,2.4,7.2,6.2,7.2c3.3-0.1,6.2-2.5,6.8-5.8h7.2c-1.4,6.8-7.6,11.5-14.5,10.9
		c-8,0-12.4-4.2-12.4-11.9c0-4,1.2-8,3.4-11.4c2.9-4.5,8-7.2,13.4-6.9c3.9-0.4,7.7,1.4,10,4.6c1.1,1.9,1.5,4.1,1.2,6.4L559.6,473.6z
		"/>
	<path fill="#231F20" d="M573.4,492.2h-6.2l1.3-6.1h6.2L573.4,492.2z"/>
	<polygon points="145.5,357 194.3,413.3 243.1,357 	"/>
	<polygon points="115,357 89.3,357 89.3,425.8 143.9,426 163.2,448.5 194.2,448.5 	"/>
	<rect x="41.3" y="357" width="25.1" height="91.5"/>
	<g>
		<circle fill="none" stroke="#CB2026" stroke-miterlimit="10" cx="464.6" cy="367.6" r="34.6"/>
		<circle fill="none" stroke="#CB2026" stroke-miterlimit="10" cx="464.6" cy="367.6" r="30.3"/>
		<circle cx="464.6" cy="367.6" r="4.2"/>
		<g>
			<line fill="none" stroke="#CB2026" stroke-miterlimit="10" x1="430.1" y1="367.5" x2="499.2" y2="367.5"/>
			<circle fill="#CB2026" cx="501.6" cy="367.5" r="2.3"/>
			<circle fill="#CB2026" cx="428" cy="367.5" r="2.3"/>
		</g>
		<g>
			<line fill="none" stroke="#CB2026" stroke-miterlimit="10" x1="472.4" y1="333.6" x2="457.4" y2="401.1"/>
			<circle fill="#CB2026" cx="456.9" cy="403.4" r="2.3"/>
			<circle fill="#CB2026" cx="472.8" cy="331.6" r="2.3"/>
		</g>
		<g>
			<line fill="none" stroke="#CB2026" stroke-miterlimit="10" x1="458.2" y1="333.4" x2="471.4" y2="401.2"/>
			<circle fill="#CB2026" cx="471.9" cy="403.6" r="2.3"/>
			<circle fill="#CB2026" cx="457.8" cy="331.4" r="2.3"/>
		</g>
		<g>
			<line fill="none" stroke="#CB2026" stroke-miterlimit="10" x1="445.2" y1="338.9" x2="484.3" y2="395.8"/>
			<circle fill="#CB2026" cx="485.7" cy="397.8" r="2.3"/>
			<circle fill="#CB2026" cx="444" cy="337.2" r="2.3"/>
		</g>
		<g>
			<line fill="none" stroke="#CB2026" stroke-miterlimit="10" x1="435.8" y1="348.3" x2="493.5" y2="386.4"/>
			<circle fill="#CB2026" cx="495.6" cy="387.8" r="2.3"/>
			<circle fill="#CB2026" cx="434.1" cy="347.3" r="2.3"/>
		</g>
		<g>
			<line fill="none" stroke="#CB2026" stroke-miterlimit="10" x1="430.8" y1="360.3" x2="498.4" y2="374.6"/>
			<circle fill="#CB2026" cx="500.8" cy="375.1" r="2.3"/>
			<circle fill="#CB2026" cx="428.8" cy="359.9" r="2.3"/>
		</g>
		<g>
			<line fill="none" stroke="#CB2026" stroke-miterlimit="10" x1="445.6" y1="396.4" x2="483.9" y2="338.9"/>
			<circle fill="#CB2026" cx="485.3" cy="336.9" r="2.3"/>
			<circle fill="#CB2026" cx="444.4" cy="398.1" r="2.3"/>
		</g>
		<g>
			<line fill="none" stroke="#CB2026" stroke-miterlimit="10" x1="430.8" y1="374.5" x2="498.5" y2="360.6"/>
			<circle fill="#CB2026" cx="500.8" cy="360" r="2.3"/>
			<circle fill="#CB2026" cx="428.8" cy="375" r="2.3"/>
		</g>
		<g>
			<line fill="none" stroke="#CB2026" stroke-miterlimit="10" x1="435.8" y1="386.6" x2="493.5" y2="348.7"/>
			<circle fill="#CB2026" cx="495.6" cy="347.3" r="2.3"/>
			<circle fill="#CB2026" cx="434.1" cy="387.7" r="2.3"/>
		</g>
		<g>
			<line fill="none" stroke="#CB2026" stroke-miterlimit="10" x1="451.2" y1="335.6" x2="478.3" y2="399.1"/>
			<circle fill="#CB2026" cx="479.2" cy="401.4" r="2.3"/>
			<circle fill="#CB2026" cx="450.5" cy="333.6" r="2.3"/>
		</g>
		<g>
			<line fill="none" stroke="#CB2026" stroke-miterlimit="10" x1="451.2" y1="399.5" x2="478.3" y2="335.9"/>
			<circle fill="#CB2026" cx="479.2" cy="333.6" r="2.3"/>
			<circle fill="#CB2026" cx="450.5" cy="401.4" r="2.3"/>
		</g>
		<g>
			<line fill="none" stroke="#CB2026" stroke-miterlimit="10" x1="432.8" y1="354.3" x2="496.6" y2="380.7"/>
			<circle fill="#CB2026" cx="498.8" cy="381.6" r="2.3"/>
			<circle fill="#CB2026" cx="430.8" cy="353.4" r="2.3"/>
		</g>
		<g>
			<line fill="none" stroke="#CB2026" stroke-miterlimit="10" x1="432.8" y1="380.8" x2="496.6" y2="354.3"/>
			<circle fill="#CB2026" cx="498.8" cy="353.4" r="2.3"/>
			<circle fill="#CB2026" cx="430.8" cy="381.6" r="2.3"/>
		</g>
		<g>
			<line fill="none" stroke="#CB2026" stroke-miterlimit="10" x1="440.3" y1="343" x2="489.2" y2="391.8"/>
			<circle fill="#CB2026" cx="490.9" cy="393.5" r="2.3"/>
			<circle fill="#CB2026" cx="438.8" cy="341.5" r="2.3"/>
		</g>
		<g>
			<line fill="none" stroke="#CB2026" stroke-miterlimit="10" x1="440.3" y1="392.1" x2="489.2" y2="343.2"/>
			<circle fill="#CB2026" cx="490.9" cy="341.5" r="2.3"/>
			<circle fill="#CB2026" cx="438.8" cy="393.5" r="2.3"/>
		</g>
		<g>
			<line fill="none" stroke="#CB2026" stroke-miterlimit="10" x1="464.9" y1="402.2" x2="464.9" y2="333.2"/>
			<circle fill="#CB2026" cx="464.9" cy="330.8" r="2.3"/>
			<circle fill="#CB2026" cx="464.9" cy="404.3" r="2.3"/>
		</g>
	</g>
	<rect x="435.5" y="391.2" fill="#FFFFFF" width="39.2" height="4.1"/>
	<rect x="453.9" y="380.3" fill="#FFFFFF" width="20.9" height="4.1"/>
	<rect x="478.9" y="368.7" fill="#FFFFFF" width="3.3" height="73.8"/>
	<rect x="472.2" y="400.3" fill="#FFFFFF" width="2.4" height="42.4"/>
	<rect x="464.7" y="400.3" fill="#FFFFFF" width="3.3" height="42.4"/>
	<rect x="457.2" y="400.3" fill="#FFFFFF" width="3.3" height="42.4"/>
	<rect x="450.7" y="400.3" fill="#FFFFFF" width="2.4" height="42.4"/>
	<rect x="443.1" y="400.3" fill="#FFFFFF" width="2.4" height="42.4"/>
	<rect x="435.7" y="400.3" fill="#FFFFFF" width="2.4" height="42.4"/>
</g>
</svg>
