<svg viewBox="0 0 648 151.2" xmlns="http://www.w3.org/2000/svg"><g fill="#fff"><path d="m74.9.99c-40.47 0-73.27 33.41-73.27 74.61s32.8 74.61 73.27 74.61 73.27-33.4 73.27-74.61-32.8-74.61-73.27-74.61zm0 137.61c-34.17 0-61.87-28.21-61.87-63s27.7-63 61.87-63 61.87 28.21 61.87 63-27.7 63-61.87 63z"/><path d="m117.56 69.7c-.01 3.91-1.57 7.62-4.26 10.12-2.45 2.28-5.26 4.01-8.29 5.09-6.59 2.26-13.43 3.49-20.32 3.63l-1.98.07v-24.27c-.04-1.44.13-2.87.52-4.24.48-1.64 1.59-2.96 3.02-3.6 1.3-.59 2.68-.94 4.08-1.06 5.41-.43 10.84.06 16.13 1.42 2.53.68 4.91 1.9 7.02 3.6 2.61 2.16 4.13 5.59 4.08 9.22m12.47-.62c.1-4.02-1.18-7.94-3.58-10.94-1.89-2.21-4.19-3.93-6.74-5.04-5.04-2.17-10.36-3.43-15.75-3.74-2.89-.24-5.79-.36-8.69-.35h-25.04c-1.08-.02-2.17.07-3.23.29-.45.11-.89.29-1.29.53-.91.58-1.23 1.87-.71 2.89.11.22.26.42.44.58.39.37.81.67 1.27.92l2.25 1.15c.48.26.93.59 1.34.97.44.5.75 1.14.88 1.83l.21 2.99-.18 53.88c-.08.56-.26 1.1-.54 1.57-.23.35-.54.64-.88.84-.67.37-1.35.73-2.04 1.06-.65.3-1.28.67-1.88 1.1-.31.22-.59.51-.82.84-.59 1.02-.33 2.38.57 3.05.05.04.09.07.15.1.44.27.92.46 1.42.55 1 .18 2.02.27 3.04.25h15.36c1.08.02 2.14-.09 3.2-.31.43-.11.85-.29 1.24-.53.5-.34.84-.92.9-1.57.07-.47 0-.96-.18-1.39-.17-.34-.41-.63-.7-.84-.47-.35-.96-.64-1.49-.86-.99-.47-2-.86-3.04-1.19-.44-.13-.87-.31-1.29-.53-.3-.15-.55-.38-.73-.68-.36-.55-.6-1.2-.68-1.88-.1-.83-.14-1.66-.12-2.5v-16.78c10.04.06 20.04-1.57 29.64-4.84 4.17-1.49 8.05-3.83 11.46-6.9 2.98-2.74 5.06-6.52 5.89-10.74l.33-3.76z"/><path d="m89.93 54.63c-.01 3.91-1.57 7.62-4.26 10.12-2.45 2.28-5.26 4.01-8.29 5.09-6.59 2.26-13.43 3.49-20.32 3.63l-1.98.07v-24.27c-.04-1.44.13-2.87.52-4.24.48-1.64 1.59-2.96 3.02-3.6 1.3-.59 2.68-.94 4.08-1.06 5.41-.43 10.84.06 16.13 1.42 2.52.68 4.91 1.9 7.02 3.6 2.61 2.16 4.13 5.59 4.08 9.22m12.47-.62c.1-4.02-1.18-7.94-3.58-10.94-1.89-2.21-4.19-3.93-6.74-5.04-5.04-2.17-10.36-3.43-15.75-3.74-2.89-.24-5.79-.35-8.69-.35h-25.04c-1.08-.02-2.17.07-3.23.29-.45.11-.89.29-1.29.53-.91.58-1.23 1.87-.71 2.89.11.22.26.42.44.58.39.36.81.67 1.27.91l2.25 1.15c.48.26.93.59 1.34.97.44.5.75 1.14.88 1.83l.21 2.99-.18 53.88c-.07.56-.26 1.1-.54 1.57-.23.35-.54.64-.88.84-.67.37-1.35.73-2.04 1.06-.65.3-1.28.67-1.88 1.09-.31.23-.59.51-.82.84-.59 1.02-.33 2.38.57 3.05.05.04.09.07.15.09.44.28.92.46 1.42.55 1 .18 2.02.27 3.04.25h15.36c1.07.02 2.14-.09 3.2-.31.44-.11.85-.29 1.24-.53.5-.34.84-.92.9-1.57.07-.47 0-.96-.18-1.39-.17-.34-.41-.63-.7-.84-.47-.35-.96-.64-1.49-.86-.99-.47-2-.86-3.04-1.19-.44-.13-.87-.31-1.29-.53-.3-.15-.55-.38-.73-.68-.37-.55-.6-1.2-.68-1.88-.1-.83-.14-1.66-.12-2.5v-16.78c10.04.06 20.03-1.57 29.64-4.84 4.17-1.49 8.05-3.83 11.46-6.9 2.99-2.74 5.06-6.52 5.89-10.74l.33-3.76z"/><path d="m223.59 47.64c0 2.86-1.12 5.57-3.02 7.39-1.74 1.66-3.74 2.93-5.89 3.72-4.68 1.65-9.54 2.55-14.43 2.65l-1.4.05v-17.73c-.03-1.05.09-2.1.37-3.1.34-1.2 1.13-2.16 2.14-2.63.93-.43 1.9-.69 2.9-.77 3.84-.31 7.7.04 11.45 1.04 1.8.5 3.49 1.39 4.99 2.63 1.85 1.58 2.93 4.09 2.9 6.74m8.86-.45c.07-2.94-.84-5.8-2.54-7.99-1.34-1.61-2.98-2.87-4.79-3.68-3.58-1.58-7.36-2.51-11.19-2.74-2.05-.17-4.11-.26-6.17-.25h-17.78c-.77-.02-1.54.05-2.3.21-.32.08-.63.21-.92.39-.65.42-.87 1.37-.51 2.11.08.16.19.31.31.43.28.27.58.49.91.67l1.6.84c.34.19.66.43.95.71.31.37.53.83.63 1.34l.15 2.19-.13 39.37c-.05.41-.18.8-.38 1.15-.17.25-.38.47-.63.61-.47.27-.96.53-1.45.77-.47.22-.91.49-1.33.8-.22.17-.42.37-.58.62-.42.74-.24 1.74.41 2.22.03.02.07.05.1.07.31.2.65.33 1.01.4.71.13 1.43.2 2.16.19h10.91c.76.01 1.52-.07 2.27-.23.31-.08.6-.21.88-.39.36-.25.6-.67.64-1.15.05-.34 0-.7-.13-1.01-.12-.25-.29-.46-.5-.62-.33-.25-.68-.47-1.05-.63-.7-.34-1.42-.63-2.16-.87-.31-.09-.62-.23-.92-.39-.21-.11-.39-.28-.52-.49-.26-.41-.43-.88-.49-1.38-.07-.6-.1-1.22-.08-1.83v-12.26c7.13.04 14.23-1.15 21.05-3.54 2.96-1.09 5.72-2.8 8.14-5.04 2.12-2 3.59-4.77 4.19-7.85l.23-2.75z"/><path d="m285.84 79.53c0-.33-.03-.67-.12-.99-.11-.4-.38-.72-.73-.84-.34-.12-.7-.16-1.05-.11-.53.09-1.05.27-1.54.53l-3.12 1.77c-3.32 1.67-6.88 2.59-10.5 2.7-3.94.21-7.89.22-11.84.04-.78-.04-1.56-.17-2.32-.39-.41-.12-.8-.33-1.15-.61-.39-.35-.67-.83-.8-1.37-.15-.63-.23-1.28-.23-1.93v-36.93c-.03-.66.02-1.32.13-1.98.07-.49.27-.95.57-1.32.2-.24.44-.44.7-.6.7-.39 1.41-.73 2.14-1.01.34-.14.66-.32.97-.52.24-.17.45-.4.6-.67.21-.42.26-.92.14-1.39-.08-.29-.25-.54-.47-.69-.28-.21-.59-.35-.92-.43-.75-.17-1.51-.26-2.27-.25h-.67s-9.8-.01-9.8-.01c-.77-.02-1.55.05-2.31.21-.32.08-.63.21-.92.39-.65.42-.87 1.37-.51 2.11.08.16.18.31.31.43.28.27.58.49.91.67l1.6.84c.34.19.66.43.95.71.31.37.53.83.63 1.34.11.57.16 1.16.15 1.75v37.67c.02.72-.01 1.43-.12 2.14-.06.41-.19.8-.39 1.15-.16.25-.38.47-.63.61-.48.27-.96.53-1.45.77-.47.22-.91.49-1.33.8-.22.17-.41.37-.57.62-.42.74-.25 1.73.39 2.22.04.03.07.05.1.07.31.2.66.33 1.01.4.72.13 1.44.2 2.17.19h34.97c1.21.03 2.42-.04 3.63-.19.63-.08 1.24-.29 1.79-.64.21-.13.4-.29.57-.48l.06-.08c.11-.22.21-.45.3-.69.64-1.91.97-3.94.96-5.99"/><path d="m327.6 63.59h-20.62c2.97-7.71 6.45-15.15 10.41-22.26 3.81 7.17 7.22 14.6 10.21 22.26m18.7 22.18c0-.47-.16-.91-.43-1.25-.27-.33-.57-.61-.89-.86-.46-.33-.91-.67-1.34-1.03-.29-.23-.54-.49-.77-.8l-.21-.39c-.47-.97-.87-1.99-1.19-3.04-4.3-13.93-10.02-27.23-17.03-39.61-1.25-2.13-2.68-4.12-4.27-5.94-.33-.36-.69-.68-1.07-.99-.24-.18-.51-.31-.79-.39-.36-.08-.73 0-1.03.23-.29.22-.55.47-.8.75-1.15 1.36-2.19 2.85-3.11 4.43-5.46 9.72-10.26 19.92-14.36 30.5l-5.34 13.98c-.21.52-.45 1.02-.72 1.51-.11.17-.24.33-.39.45-.28.22-.56.43-.86.62-.27.16-.53.35-.76.57-.17.15-.3.33-.39.55-.13.34-.13.72-.01 1.07.1.31.29.56.53.72.31.22.65.38 1.01.47.86.21 1.74.3 2.62.27h7.61c.72-.03 1.44-.15 2.13-.37.34-.1.66-.29.93-.55.29-.28.44-.7.41-1.13 0-.45-.15-.88-.41-1.21-.19-.22-.41-.39-.65-.52l-1.1-.59-1.05-.63c-.31-.19-.58-.45-.79-.77-.17-.29-.26-.63-.25-.97.02-.7.12-1.4.29-2.08.76-3.01 1.7-5.96 2.81-8.82l.45-1.23h24.49c1.43 3.26 2.7 6.6 3.82 10.01.18.57.31 1.16.39 1.76.04.39.02.78-.06 1.16-.04.18-.12.35-.23.48-.03.05-.08.09-.13.1l-.51.28c-.6.28-1.19.59-1.76.93-.31.18-.59.43-.82.72-.38.56-.49 1.3-.29 1.97.12.32.32.59.58.78.32.22.66.37 1.02.45.82.18 1.65.26 2.48.23l8.74-.03c.74-.02 1.47-.13 2.19-.32.31-.07.6-.22.86-.43.22-.17.38-.44.45-.73l.02-.31z"/><path d="m393.12 40.98c0-1.92-.28-3.82-.81-5.65-.18-.6-.43-1.16-.74-1.68-.14-.22-.31-.41-.51-.55-.21-.13-.44-.23-.67-.29-.72-.18-1.45-.28-2.19-.28-.69-.02-1.38-.03-2.08-.01h-35.4c-.93-.03-1.86.03-2.78.17-.45.07-.89.23-1.3.47-.29.19-.53.47-.7.8-.32.75-.57 1.53-.75 2.34-.4 1.81-.58 3.68-.55 5.55 0 .3.06.59.15.87.12.31.35.55.64.65.28.11.57.16.87.13.71-.04 1.4-.29 2.01-.73.61-.47 1.2-.96 1.77-1.48 3.14-2.62 6.92-4.03 10.79-4 .72-.03 1.44 0 2.16.07.34.03.68.14.99.31.34.18.59.51.7.92.09.36.15.73.15 1.11v1.04s-.06 39.84-.06 39.84c-.04.45-.16.89-.35 1.29-.21.38-.5.68-.86.88-.59.33-1.19.62-1.81.86-.38.15-.75.33-1.1.55-.25.16-.46.39-.63.65-.26.51-.29 1.13-.09 1.67.12.3.33.54.59.68.34.19.7.31 1.08.36.48.07.96.1 1.44.09h11.64c.64.02 1.29-.05 1.91-.21.3-.08.58-.23.84-.44.4-.35.58-.94.46-1.51-.07-.42-.28-.79-.59-1.04-.28-.23-.6-.41-.92-.55l-1.57-.65c-.39-.16-.76-.39-1.09-.68-.29-.28-.49-.65-.6-1.07-.15-.56-.23-1.15-.22-1.74v-38.98c-.03-.53-.01-1.06.04-1.59.03-.29.1-.58.22-.84.14-.3.37-.53.64-.67.32-.17.67-.26 1.02-.29.89-.08 1.8-.09 2.69-.03 3.97.12 7.79 1.73 10.89 4.59.49.45 1.01.84 1.56 1.17.64.34 1.35.47 2.05.39.52 0 .96-.45 1.03-1.04.05-.48.07-.96.06-1.44"/><path d="m418.6 85.54c-.01-.36-.14-.7-.35-.96-.21-.25-.45-.45-.72-.62-.49-.3-.99-.57-1.51-.81-.41-.2-.81-.44-1.18-.73-.35-.28-.61-.68-.73-1.15l-.25-2.64v-37.23c-.01-.65.02-1.29.11-1.94.06-.41.19-.81.39-1.16.17-.26.39-.48.64-.63.64-.39 1.28-.76 1.93-1.11.35-.2.69-.43 1.01-.7.21-.17.39-.41.51-.68.15-.4.17-.85.05-1.27-.11-.36-.33-.66-.63-.84-.31-.2-.64-.33-.98-.39-.71-.13-1.43-.19-2.14-.17h-9.91c-.77-.02-1.54.05-2.3.21-.32.08-.63.21-.92.39-.65.43-.86 1.38-.49 2.12.07.14.16.27.27.38.23.24.49.44.78.59.54.3 1.08.58 1.64.84.37.18.72.41 1.04.68.37.32.63.78.74 1.29.12.55.18 1.12.17 1.69v37.91c.02.69-.02 1.38-.1 2.07-.06.42-.19.82-.4 1.17-.17.26-.39.47-.64.63-.57.33-1.15.65-1.74.96-.41.21-.81.45-1.19.72-.21.16-.4.36-.55.59-.3.53-.29 1.22.02 1.75.17.27.41.48.68.61.44.21.89.34 1.37.37.54.07 1.08.1 1.61.09h9.91c.76.01 1.53-.06 2.28-.23.31-.08.61-.21.89-.39.38-.25.63-.7.66-1.2v-.24z"/><path d="m486.13 34.34c0-.44-.18-.84-.5-1.08-.26-.2-.55-.34-.86-.41-.74-.18-1.5-.28-2.26-.29h-9.97c-.53 0-1.05.08-1.56.23-.27.07-.52.21-.73.41-.23.21-.38.52-.42.85-.05.33-.03.68.07 1 .09.29.26.53.49.68.25.16.52.3.8.4.68.25 1.36.47 2.05.65.41.1.81.29 1.16.56.17.12.31.29.42.49.12.26.21.54.25.83.08.64.12 1.29.1 1.95v31.11c-9.26-12.77-19.2-24.85-29.78-36.18-.83-.85-1.71-1.64-2.63-2.35-.22-.17-.46-.32-.71-.43-.14-.05-.28-.08-.42-.09-1.21-.14-2.42-.19-3.64-.15l-7.26.04c-.49.02-.98.1-1.46.23-.28.07-.55.22-.78.43-.24.22-.4.53-.45.88-.07.37-.05.75.04 1.11.09.31.26.58.5.76.26.21.55.38.86.49.97.39 1.95.74 2.93 1.05.47.15.92.39 1.32.71.18.14.33.32.45.53.13.29.22.6.27.92.09.66.12 1.33.12 2v32.57c.03 1.67-.05 3.34-.24 5.01-.08.7-.25 1.38-.51 2.01-.28.66-.75 1.19-1.33 1.5-.51.28-1.04.5-1.58.68-.57.2-1.13.44-1.67.73-.27.17-.48.45-.58.79-.1.32-.15.67-.13 1.01.03.34.19.65.43.84.24.21.52.37.81.45.67.21 1.36.31 2.05.31h12.41c.68-.03 1.36-.13 2.02-.32.32-.09.62-.25.88-.47.34-.3.52-.77.5-1.25 0-.38-.12-.75-.35-1.03-.19-.2-.41-.37-.65-.48-.47-.21-.94-.38-1.42-.52-.89-.22-1.77-.51-2.62-.87-.3-.12-.58-.31-.82-.56-.23-.23-.39-.53-.49-.86-.38-1.34-.58-2.73-.59-4.14v-35.47c12.72 13.18 24.34 27.71 34.71 43.4.57.82 1.2 1.59 1.88 2.3.36.38.79.65 1.25.81.49.15 1.02.13 1.5-.07.36-.16.66-.48.81-.89.15-.38.25-.79.28-1.21.07-.74.1-1.48.08-2.23v-41.88c-.02-.75 0-1.5.08-2.25.05-.46.17-.91.37-1.32.15-.28.35-.52.59-.71.53-.41 1.1-.74 1.71-.99.42-.18.83-.39 1.23-.63.25-.15.47-.34.66-.57.23-.28.35-.65.35-1.04"/><path d="m550.73 34.63c0-.31-.06-.61-.17-.88-.14-.28-.34-.51-.59-.65-.31-.17-.64-.29-.97-.36-.99-.18-1.98-.25-2.98-.21l-8.77.03c-.62.02-1.24.11-1.85.27-.3.08-.57.22-.82.43-.33.29-.5.76-.46 1.23.04.53.25 1.02.59 1.37.34.33.71.6 1.11.81l1.95.97c.32.17.63.38.92.62.31.26.54.62.67 1.03.19.57.33 1.16.43 1.76.49 3.16.78 6.36.9 9.57.27 5.58.32 11.17.16 16.75-.08 2.66-.57 5.27-1.46 7.73-1.45 3.47-4.07 6.12-7.25 7.31-5.1 2.09-10.68 2.07-15.77-.04-3.36-1.38-6.06-4.33-7.42-8.13-.73-2.45-1.13-5.03-1.16-7.62-.25-8.04.21-16.08 1.38-24.01.18-1.13.44-2.24.76-3.32.09-.3.23-.58.41-.83.2-.25.44-.46.71-.6.47-.26.94-.49 1.44-.68.44-.18.86-.41 1.25-.7.3-.21.54-.51.71-.86.31-.66.22-1.48-.23-2.02-.25-.27-.56-.47-.89-.59-.69-.25-1.4-.39-2.12-.43-1.91-.07-3.82-.09-5.74-.05l-5.51.03c-.63.02-1.26.13-1.88.33-.31.1-.6.27-.86.49-.33.29-.52.74-.51 1.21-.03.56.15 1.11.49 1.51.24.25.51.46.8.62.6.33 1.22.64 1.85.91l.29.15c.47.31.82.83.95 1.44.02.13.03.26.02.39-.06 1.75-.18 3.49-.37 5.23-.7 7.21-.98 14.46-.84 21.71.1 4.18 1.01 8.29 2.67 12.01 2.16 4.41 5.77 7.64 10.02 8.97 4.65 1.46 9.5 1.95 14.31 1.43 4.08-.23 8.07-1.48 11.69-3.67 4.36-2.83 7.43-7.71 8.4-13.36.6-3.46.83-6.99.68-10.52-.16-6.73-.53-13.45-1.09-20.15-.03-.62-.05-1.24-.06-1.87 0-.33.06-.65.18-.95.14-.31.34-.57.59-.76.31-.23.63-.43.97-.6l1.26-.6c.27-.12.51-.3.73-.52.28-.28.45-.68.47-1.11v-.21z"/><path d="m625.72 85.69c0-.28-.07-.57-.18-.81-.12-.21-.28-.39-.47-.52-.27-.19-.56-.34-.86-.47-.64-.28-1.28-.57-1.9-.88-.43-.21-.81-.52-1.13-.91-.2-.27-.36-.58-.45-.92-.16-.61-.25-1.24-.29-1.88l-.15-2.94-.5-34.28c-.01-.78.01-1.55.09-2.32.04-.36.13-.71.27-1.04.2-.39.5-.7.87-.88.35-.17.72-.3 1.09-.4.71-.17 1.4-.4 2.08-.71l.49-.23c.49-.26.84-.78.94-1.39.12-.7-.15-1.42-.68-1.79-.36-.25-.76-.42-1.18-.51-1.03-.22-2.08-.32-3.13-.29-2.61-.07-5.22-.05-7.83.05-.51.02-1.02.13-1.5.32-.53.22-.99.64-1.29 1.19-.27.46-.5.95-.68 1.47-4.65 11.57-10 22.75-16.01 33.45-5.58-10.98-10.79-22.21-15.61-33.66-.22-.49-.48-.96-.78-1.4-.42-.59-1.01-1-1.66-1.16-.67-.17-1.35-.26-2.03-.25h-8.72c-.64.02-1.28.12-1.9.31-.29.08-.57.22-.81.43-.3.24-.48.63-.51 1.04-.05.35 0 .72.14 1.04.11.27.29.49.52.64.33.21.67.38 1.03.49l2.41.68c.17.05.35.12.51.2l.09.05.07.08c.54.44.91 1.11 1.03 1.87.08.42.11.84.09 1.27v.09l-1.19 36.09c0 1.07-.05 2.15-.14 3.22-.04.55-.18 1.09-.41 1.59-.2.45-.53.82-.93 1.04-.61.36-1.24.66-1.88.92-.44.17-.87.39-1.29.63-.23.13-.44.31-.61.52-.36.48-.44 1.16-.22 1.75.11.25.28.45.5.57.26.16.55.28.84.33.78.15 1.57.22 2.37.2l10.24-.03c.64-.02 1.28-.11 1.91-.27.28-.08.55-.2.79-.38.3-.22.5-.59.54-1 .07-.53-.08-1.06-.39-1.45-.22-.23-.47-.42-.73-.56-.57-.28-1.16-.53-1.76-.75-.42-.15-.84-.32-1.24-.53-.21-.13-.4-.28-.58-.47-.17-.21-.3-.47-.36-.75-.11-.47-.17-.95-.18-1.44-.02-.44-.03-.89-.02-1.33l.68-35.26c4.64 10.76 9.68 21.29 15.08 31.56.84 1.51 1.76 2.95 2.77 4.31.2.26.41.51.65.72.23.21.49.36.78.44.3.06.6.01.87-.13.4-.23.76-.53 1.07-.89.64-.8 1.22-1.66 1.72-2.59l15.71-32.15.57 33.91c.01.81 0 1.61-.05 2.41-.02.38-.1.74-.24 1.08-.15.34-.39.61-.68.77-.54.31-1.1.57-1.68.78-.47.16-.92.35-1.37.57-.26.13-.5.31-.71.53-.49.56-.5 1.48 0 2.05.09.11.2.2.32.27.32.19.66.32 1.02.37.94.17 1.9.24 2.85.2l10.52-.04c.68-.02 1.36-.11 2.03-.27.3-.08.58-.21.84-.39.25-.18.44-.46.52-.79v-.07s.05-.36.05-.36z"/><path d="m192.29 110.28v-5.6h5.6c.86-.02 1.72.04 2.56.18.47.08.92.24 1.31.48.44.29.73.71.84 1.18.17.62.17 1.26 0 1.87-.16.6-.63 1.11-1.26 1.37-.52.22-1.08.36-1.65.41-.72.07-1.44.11-2.16.1h-5.24zm-5.75 10.57h5.75v-6.39h7.8c1.8.05 3.57-.36 5.12-1.17 1.75-1 2.9-2.66 3.14-4.5.32-1.72.01-3.48-.88-5.03-.94-1.47-2.53-2.52-4.38-2.91-.98-.23-1.99-.34-3-.33h-13.55v20.34z"/><path d="m261.01 112.43 3.01-6.28 3.04 6.28zm-10.13 8.42h6.12l2.07-4.3h10.06l2.05 4.3h6.35l-10.38-20.34h-5.49l-10.79 20.34z"/><path d="m331.51 109.2v-4.51h6.23c.9-.01 1.79.02 2.68.11.39.05.78.15 1.14.29.49.21.84.61.94 1.09.13.52.1 1.05-.1 1.55-.2.44-.58.8-1.06 1-.5.2-1.03.33-1.57.38-.6.06-1.19.09-1.79.09h-6.48zm-5.75 11.65h5.75v-7.49h6.6c.61-.02 1.22.04 1.82.17.48.1.92.32 1.26.64.29.3.5.65.6 1.04.19.68.28 1.37.28 2.06 0 .72 0 1.45.02 2.17.01.49.17.98.45 1.4h6.41c-.42-.45-.71-.98-.84-1.55-.2-.82-.31-1.65-.32-2.48-.01-.88-.07-1.77-.18-2.64-.05-.52-.22-1.02-.49-1.48-.31-.49-.77-.89-1.32-1.16-.29-.15-.6-.28-.91-.4 2.48-.85 4.02-3.07 3.78-5.43-.03-.83-.26-1.65-.68-2.39-.55-.89-1.43-1.58-2.49-1.97-1.3-.47-2.69-.74-4.09-.79-.53-.03-1.06-.04-1.6-.04h-14.03v20.34z"/><path d="m399.06 120.85h5.75v-7.04l2.89-2.28 8.25 9.32h7.04l-11.29-12.45 10.06-7.89h-7.38l-9.57 7.81v-7.81h-5.75z"/><path d="m472.74 100.51h5.75v20.34h-5.75z"/><path d="m526.32 120.85h5.5v-14.48l11.46 14.48h6.97v-20.34h-5.53v14.34l-11.36-14.34h-7.04z"/><path d="m621.73 118.58.31 2.27h4.36v-11.12h-11.26v4.17h5.18c-.87 1.55-2.49 2.67-4.39 3.04-2.03.46-4.18.28-6.08-.49-1.8-.79-3.06-2.3-3.4-4.06-.39-1.61-.21-3.29.5-4.81.85-1.68 2.56-2.88 4.59-3.22 1.82-.36 3.71-.26 5.47.3 1.48.51 2.65 1.56 3.23 2.89h6.24c-.43-2.4-2.06-4.5-4.43-5.7-2.96-1.48-6.35-2.12-9.72-1.82-2.95.1-5.79.99-8.16 2.56-2.96 2.27-4.5 5.68-4.11 9.15.29 4.07 3.34 7.57 7.69 8.81 3.08.97 6.42 1.09 9.57.35 1.67-.44 3.19-1.24 4.43-2.32"/><path d="m631.85 36.36c0-4 3.26-7.26 7.26-7.26s7.26 3.26 7.26 7.26-3.26 7.26-7.26 7.26-7.26-3.26-7.26-7.26zm13.58 0c0-3.49-2.82-6.32-6.32-6.32s-6.32 2.82-6.32 6.32 2.82 6.32 6.32 6.32 6.32-2.82 6.32-6.32zm-9.39-3.84h3.33c1.97 0 2.86.87 2.86 2.07 0 .69-.24 1.35-1.02 1.69v.04c.8.29 1.02.89 1.02 1.55v2.17h-1.38v-2.17c0-.58-.29-.91-1.09-.91h-2.33v3.08h-1.38v-7.52zm3.33 3.31c1.06 0 1.47-.35 1.47-1.06 0-.56-.33-1.02-1.58-1.02h-1.84v2.08z"/></g></svg>