<svg width="197" height="43" viewBox="0 0 197 43" fill="none" xmlns="http://www.w3.org/2000/svg">
<path fill-rule="evenodd" clip-rule="evenodd" d="M42.1963 4.30581C42.1968 2.4873 40.7208 1.01053 38.9021 1.01005L4.30567 1.00087C2.48716 1.00039 1.01035 2.47638 1.00987 4.29488L1.00069 38.8912C1.00021 40.7098 2.47624 42.1866 4.29474 42.187L38.8912 42.1962C40.7099 42.1967 42.1866 40.7207 42.1871 38.9022L42.1963 4.30581Z" stroke="white" stroke-width="1.21162" stroke-miterlimit="1.5" stroke-linecap="round" stroke-linejoin="round"/>
<path fill-rule="evenodd" clip-rule="evenodd" d="M17.3454 24.3247L23.9016 17.771L26.4017 18.5223L19.8461 25.0745L17.3454 24.3247Z" fill="white"/>
<path d="M21.8954 17.1631L14.4721 24.59C12.568 26.4931 10.6193 27.4187 8.43629 26.7618L4.84414 25.6831L12.1529 18.3787C14.1305 16.4022 16.8973 15.664 19.3858 16.4095L21.8954 17.1631Z" fill="white"/>
<path d="M38.9417 17.1676L31.5185 24.5945C29.6144 26.4976 27.6657 27.4232 25.4827 26.7664L21.8905 25.6876L29.1993 18.3832C31.1769 16.4067 33.9437 15.6685 36.4322 16.414L38.9417 17.1676Z" fill="white"/>
<path d="M56.3387 32.5982C56.0854 32.5981 55.8603 32.5136 55.7197 32.3447C55.5509 32.204 55.4665 32.007 55.4666 31.7537L55.4719 11.4642C55.472 11.2109 55.5565 11.014 55.7254 10.8452C55.8661 10.7045 56.0631 10.6201 56.3164 10.6202C56.5697 10.6203 56.7666 10.7047 56.9354 10.8455C57.0761 11.0144 57.1605 11.2114 57.1604 11.4646L57.155 31.7541C57.1549 32.0074 57.0705 32.2044 56.9297 32.345C56.789 32.5138 56.592 32.5982 56.3387 32.5982Z" fill="white"/>
<path d="M69.8788 32.8835C68.6969 32.8832 67.6276 32.7141 66.6428 32.3761C65.6579 32.0663 64.7857 31.5877 64.0823 30.9684C63.379 30.3773 62.8164 29.6454 62.3945 28.8292C62.282 28.6041 62.282 28.379 62.3946 28.182C62.4791 27.985 62.648 27.8444 62.9013 27.76C63.0983 27.6757 63.3234 27.7039 63.5204 27.7883C63.7173 27.8728 63.8861 28.0417 63.9986 28.2387C64.3362 28.8298 64.7863 29.3646 65.3208 29.815C65.8835 30.2654 66.5588 30.6032 67.3186 30.8285C68.0783 31.082 68.9225 31.1948 69.8793 31.1951C70.9486 31.1953 71.8773 31.0267 72.6654 30.6611C73.4253 30.2955 74.0445 29.7891 74.4668 29.0857C74.8609 28.3823 75.0863 27.5381 75.0866 26.5532C75.0869 25.315 74.6369 24.2737 73.7366 23.4011C72.8645 22.5566 71.5139 22.0216 69.6848 21.7678C67.5743 21.4577 65.9423 20.7819 64.7607 19.7123C63.5791 18.6707 62.9885 17.3761 62.9889 15.8565C62.9891 14.759 63.2708 13.7742 63.8057 12.9582C64.3687 12.1423 65.1569 11.4953 66.1701 11.0171C67.1551 10.5671 68.3089 10.3423 69.6315 10.3427C70.6165 10.3429 71.5169 10.512 72.3329 10.8218C73.1489 11.1315 73.8805 11.5539 74.4994 12.0605C75.1184 12.5954 75.5967 13.1302 75.9342 13.6931C76.0748 13.8901 76.1029 14.1153 76.0466 14.3404C75.9621 14.5936 75.8213 14.7624 75.5681 14.8468C75.371 14.9311 75.1459 14.9311 74.949 14.8747C74.752 14.7903 74.5832 14.6777 74.4425 14.4806C74.1894 14.0866 73.8518 13.6925 73.4298 13.3266C73.0077 12.9607 72.5013 12.651 71.8823 12.3975C71.2632 12.1441 70.5035 12.0313 69.6311 12.0311C68.0834 12.0307 66.8732 12.3681 66.0007 13.0714C65.1281 13.7747 64.6776 14.7595 64.6773 16.0258C64.6771 16.7012 64.8739 17.3203 65.2396 17.8551C65.6053 18.418 66.168 18.8966 66.9558 19.2907C67.7436 19.6849 68.7566 19.9947 69.9666 20.192C72.3866 20.6148 74.1312 21.3469 75.2002 22.4165C76.2411 23.5143 76.7754 24.8934 76.775 26.5537C76.7747 27.5386 76.6057 28.4109 76.2959 29.1988C75.958 29.9866 75.4794 30.6619 74.8602 31.1964C74.2691 31.7309 73.5373 32.1528 72.693 32.434C71.8487 32.7433 70.92 32.8838 69.8788 32.8835Z" fill="white"/>
<path d="M80.4822 32.6046C80.1164 32.6045 79.8913 32.4637 79.7507 32.1822C79.61 31.9008 79.582 31.6475 79.7227 31.3943L88.2547 11.2196C88.3956 10.8257 88.677 10.6288 89.071 10.6289C89.4368 10.629 89.7182 10.826 89.8869 11.22L98.4364 31.3993C98.577 31.6526 98.5769 31.934 98.408 32.1872C98.2391 32.4686 97.9858 32.6092 97.6762 32.6091C97.4793 32.6091 97.3386 32.5527 97.226 32.4683C97.0853 32.3838 96.9728 32.2712 96.8884 32.0742L88.6203 12.3453L89.5208 12.3456L81.2703 32.0701C81.1858 32.2671 81.1014 32.3796 80.9606 32.464C80.8199 32.5484 80.6792 32.6046 80.4822 32.6046ZM82.5661 27.0895L83.2419 25.5701L94.9484 25.5732L95.5953 27.093L82.5661 27.0895Z" fill="white"/>
<path d="M102.544 32.6104C102.291 32.6103 102.094 32.5259 101.954 32.357C101.785 32.2162 101.7 32.0192 101.7 31.766L101.706 11.4765C101.706 11.2232 101.79 10.9981 101.959 10.8574C102.1 10.7168 102.297 10.6324 102.55 10.6325L107.925 10.6339C109.304 10.6342 110.514 10.916 111.583 11.5072C112.624 12.0703 113.468 12.8585 114.059 13.8436C114.65 14.8286 114.959 15.9825 114.959 17.3051C114.958 18.5715 114.648 19.7251 114.057 20.7099C113.466 21.6947 112.622 22.4824 111.58 23.0449C110.511 23.6075 109.301 23.8886 107.922 23.8882L103.391 23.887L103.389 31.7664C103.389 32.0197 103.304 32.2166 103.164 32.3573C103.023 32.5261 102.798 32.6105 102.544 32.6104ZM114.364 32.6135C114.167 32.6135 113.998 32.5572 113.913 32.4727C113.801 32.3883 113.688 32.3038 113.604 32.1631L108.006 23.2128L109.751 22.8193L115.067 31.3193C115.321 31.6852 115.377 31.9947 115.236 32.2479C115.095 32.5012 114.786 32.6137 114.364 32.6135ZM103.391 22.1985L107.922 22.1997C108.963 22.2 109.892 21.9751 110.708 21.5532C111.496 21.1595 112.116 20.5687 112.594 19.8372C113.045 19.1056 113.27 18.2615 113.27 17.3047C113.27 16.3197 113.046 15.4755 112.595 14.7155C112.117 13.9556 111.498 13.3645 110.71 12.9422C109.895 12.5198 108.966 12.3226 107.925 12.3223L103.394 12.3211L103.391 22.1985Z" fill="white"/>
<path d="M125.683 32.8983C124.501 32.898 123.431 32.7289 122.446 32.3909C121.462 32.0811 120.589 31.6025 119.886 30.9832C119.183 30.3921 118.62 29.6603 118.198 28.8441C118.086 28.6189 118.086 28.3938 118.198 28.1968C118.283 27.9999 118.452 27.8592 118.705 27.7749C118.902 27.6905 119.127 27.7187 119.324 27.8032C119.521 27.8876 119.69 28.0565 119.802 28.2535C120.14 28.8446 120.59 29.3794 121.125 29.8298C121.687 30.2802 122.363 30.6181 123.122 30.8434C123.882 31.0968 124.726 31.2096 125.683 31.2099C126.752 31.2102 127.681 31.0416 128.469 30.676C129.229 30.3103 129.848 29.804 130.271 29.1005C130.665 28.3971 130.89 27.553 130.89 26.568C130.891 25.3298 130.441 24.2885 129.54 23.4159C128.668 22.5715 127.318 22.0364 125.489 21.7827C123.378 21.4726 121.746 20.7968 120.564 19.7271C119.383 18.6856 118.792 17.3909 118.793 15.8713C118.793 14.7738 119.075 13.789 119.609 12.973C120.172 12.1571 120.961 11.5101 121.974 11.032C122.959 10.582 124.113 10.3572 125.435 10.3575C126.42 10.3578 127.321 10.5268 128.137 10.8366C128.953 11.1464 129.684 11.5687 130.303 12.0754C130.922 12.6102 131.4 13.145 131.738 13.7079C131.879 13.9049 131.907 14.1301 131.85 14.3552C131.766 14.6084 131.625 14.7772 131.372 14.8616C131.175 14.946 130.95 14.9459 130.753 14.8896C130.556 14.8051 130.387 14.6925 130.246 14.4955C129.993 14.1014 129.655 13.7074 129.233 13.3414C128.811 12.9755 128.305 12.6658 127.686 12.4124C127.067 12.1589 126.307 12.0462 125.435 12.0459C123.887 12.0455 122.677 12.3829 121.804 13.0862C120.932 13.7895 120.481 14.7743 120.481 16.0406C120.481 16.716 120.678 17.3352 121.043 17.8699C121.409 18.4328 121.972 18.9114 122.76 19.3056C123.547 19.6997 124.56 20.0096 125.77 20.2069C128.19 20.6296 129.935 21.3617 131.004 22.4314C132.045 23.5291 132.579 24.9082 132.579 26.5685C132.578 27.5534 132.409 28.4257 132.1 29.2136C131.762 30.0014 131.283 30.6767 130.664 31.2112C130.073 31.7457 129.341 32.1676 128.497 32.4488C127.652 32.7582 126.724 32.8986 125.683 32.8983Z" fill="white"/>
<path d="M147.879 32.9042C146.275 32.9038 144.784 32.622 143.405 32.0588C142.026 31.4956 140.844 30.7074 139.804 29.6659C138.791 28.6526 138.003 27.4704 137.441 26.0914C136.878 24.7405 136.597 23.249 136.598 21.6168C136.598 20.0128 136.88 18.5214 137.443 17.1426C138.006 15.792 138.794 14.6103 139.808 13.5694C140.849 12.5566 142.031 11.769 143.41 11.2065C144.761 10.644 146.253 10.363 147.885 10.3635C149.489 10.3639 150.98 10.6457 152.359 11.2089C153.71 11.7721 154.892 12.5603 155.932 13.5737C156.945 14.6151 157.733 15.7973 158.295 17.1482C158.858 18.5272 159.139 20.0187 159.138 21.6228C159.138 23.2268 158.856 24.7182 158.293 26.0969C157.73 27.4757 156.942 28.6574 155.928 29.6702C154.887 30.7111 153.705 31.4987 152.354 32.0612C150.975 32.6236 149.483 32.9047 147.879 32.9042ZM147.88 31.2158C149.23 31.2161 150.497 30.9632 151.651 30.4851C152.804 30.007 153.818 29.3319 154.69 28.4598C155.563 27.5877 156.239 26.5748 156.717 25.4211C157.196 24.2675 157.45 23.0012 157.45 21.6223C157.45 20.2716 157.197 19.0052 156.719 17.8513C156.241 16.6974 155.566 15.656 154.694 14.8115C153.822 13.9108 152.809 13.2351 151.655 12.7564C150.502 12.2777 149.235 12.0523 147.885 12.0519C146.506 12.0515 145.239 12.2763 144.085 12.7544C142.932 13.2325 141.918 13.9076 141.046 14.8079C140.173 15.6519 139.497 16.6929 139.019 17.8466C138.54 19.0002 138.286 20.2665 138.286 21.6172C138.286 22.9961 138.539 24.2625 139.017 25.4164C139.495 26.5703 140.17 27.5836 141.042 28.4562C141.914 29.3288 142.927 30.0044 144.081 30.4831C145.234 30.9618 146.501 31.2154 147.88 31.2158Z" fill="white"/>
<path d="M162.763 32.6264C162.509 32.6263 162.312 32.5419 162.172 32.373C162.003 32.2322 161.919 32.0352 161.919 31.782L161.924 11.4924C161.924 11.2392 162.009 11.0422 162.178 10.8734C162.318 10.7328 162.515 10.6484 162.769 10.6484L176.304 10.652C176.529 10.6521 176.726 10.7366 176.895 10.8773C177.064 11.0462 177.148 11.2714 177.148 11.5246C177.148 11.7216 177.064 11.9186 176.895 12.0874C176.726 12.2562 176.529 12.3405 176.304 12.3405L163.612 12.3371L163.61 20.7794L172.925 20.7818C173.178 20.7819 173.403 20.8664 173.544 21.0353C173.684 21.176 173.769 21.373 173.769 21.6263C173.769 21.8795 173.684 22.1046 173.543 22.2453C173.403 22.4141 173.177 22.4985 172.924 22.4984L163.61 22.4959L163.607 31.7824C163.607 32.0357 163.523 32.2326 163.382 32.3733C163.213 32.5421 163.016 32.6265 162.763 32.6264Z" fill="white"/>
<path d="M187.557 32.6329C187.303 32.6329 187.106 32.5484 186.966 32.3795C186.797 32.2388 186.713 32.0418 186.713 31.7885L186.718 10.6548L188.407 10.6552L188.401 31.789C188.401 32.0422 188.317 32.2392 188.148 32.3798C188.007 32.5486 187.81 32.633 187.557 32.6329ZM179.598 12.1725C179.373 12.1724 179.204 12.088 179.064 11.9472C178.923 11.8065 178.839 11.6376 178.839 11.4406C178.839 11.1874 178.923 10.9904 179.064 10.8497C179.205 10.7091 179.374 10.6528 179.599 10.6529L195.526 10.6571C195.751 10.6572 195.948 10.7135 196.061 10.8542C196.202 10.995 196.286 11.192 196.286 11.4171C196.286 11.6422 196.201 11.8111 196.061 11.9517C195.948 12.0924 195.751 12.1768 195.526 12.1767L179.598 12.1725Z" fill="white"/>
</svg>
