<?xml version="1.0" encoding="UTF-8"?>
<svg xmlns="http://www.w3.org/2000/svg" xmlns:xlink="http://www.w3.org/1999/xlink" width="120pt" height="120pt" viewBox="0 0 120 120" version="1.1">
<g id="surface1">
<path style="fill-rule:evenodd;fill:rgb(100%,100%,100%);fill-opacity:1;stroke-width:7.62;stroke-linecap:butt;stroke-linejoin:miter;stroke:rgb(16.862745%,16.470588%,16.078431%);stroke-opacity:1;stroke-miterlimit:22.9256;" d="M 3200.219018 1600.161415 C 3200.219018 2483.810952 2483.810952 3200.219018 1600.161415 3200.219018 C 716.511878 3200.219018 0.207624 2483.810952 0.207624 1600.161415 C 0.207624 716.511878 716.511878 0.207624 1600.161415 0.207624 C 2483.810952 0.207624 3200.219018 716.511878 3200.219018 1600.161415 Z M 3200.219018 1600.161415 " transform="matrix(0.037628,0,0,0.037628,0,0)"/>
<path style=" stroke:none;fill-rule:nonzero;fill:rgb(15.294118%,73.72549%,90.980392%);fill-opacity:1;" d="M 107.484375 87.605469 L 12.9375 87.605469 L 20.339844 74.785156 L 31.023438 74.785156 L 28.984375 78.3125 L 91.4375 78.3125 L 89.402344 74.785156 L 100.082031 74.785156 Z M 36.65625 46.519531 L 60.210938 5.722656 L 83.765625 46.519531 L 73.085938 46.519531 L 60.210938 24.226562 L 47.339844 46.519531 Z M 36.65625 46.519531 "/>
<path style=" stroke:none;fill-rule:evenodd;fill:rgb(99.607843%,99.607843%,99.607843%);fill-opacity:1;" d="M 36.65625 46.519531 L 47.339844 46.519531 L 31.023438 74.785156 L 20.339844 74.785156 Z M 73.085938 46.519531 L 83.765625 46.519531 L 100.082031 74.785156 L 89.402344 74.785156 L 75.828125 51.269531 Z M 73.085938 46.519531 "/>
<path style=" stroke:none;fill-rule:nonzero;fill:rgb(16.862745%,16.470588%,16.078431%);fill-opacity:1;" d="M 8.859375 72.101562 L 3.035156 72.101562 L 11.007812 49.457031 L 28.960938 49.457031 L 27.367188 53.984375 L 15.238281 53.984375 L 13.359375 59.324219 L 22.902344 59.324219 L 21.304688 63.851562 L 11.761719 63.851562 Z M 31.226562 49.457031 L 44.8125 49.457031 C 47.078125 49.457031 48.539062 49.96875 49.203125 50.992188 C 49.867188 52.019531 49.800781 53.664062 49.003906 55.925781 L 47.980469 58.839844 C 47.347656 60.628906 46.5625 62.019531 45.621094 63.011719 C 44.675781 64.003906 43.5 64.660156 42.09375 64.984375 L 43.632812 72.101562 L 37.324219 72.101562 L 35.996094 65.308594 L 31.46875 65.308594 L 29.074219 72.101562 L 23.253906 72.101562 Z M 43.179688 55.925781 C 43.636719 54.632812 43.21875 53.984375 41.925781 53.984375 L 35.453125 53.984375 L 33.0625 60.777344 L 39.53125 60.777344 C 40.824219 60.777344 41.699219 60.132812 42.15625 58.839844 Z M 64.496094 72.101562 L 46.542969 72.101562 L 54.515625 49.457031 L 72.46875 49.457031 L 70.875 53.984375 L 58.746094 53.984375 L 57.207031 58.351562 L 66.75 58.351562 L 65.15625 62.882812 L 55.613281 62.882812 L 53.960938 67.570312 L 66.089844 67.570312 Z M 68.054688 67.410156 C 73.851562 67.734375 77.792969 67.894531 79.886719 67.894531 C 80.382812 67.894531 80.828125 67.75 81.21875 67.457031 C 81.613281 67.167969 81.898438 66.773438 82.074219 66.277344 L 83.097656 63.367188 L 75.660156 63.367188 C 73.394531 63.367188 71.929688 62.855469 71.265625 61.832031 C 70.601562 60.804688 70.667969 59.160156 71.46875 56.898438 L 71.808594 55.925781 C 72.605469 53.664062 73.699219 52.019531 75.082031 50.992188 C 76.46875 49.96875 78.292969 49.457031 80.554688 49.457031 L 91.910156 49.457031 L 90.316406 53.984375 L 80.253906 53.984375 C 78.960938 53.984375 78.085938 54.632812 77.632812 55.925781 L 77.402344 56.574219 C 76.949219 57.867188 77.367188 58.515625 78.660156 58.515625 L 84.484375 58.515625 C 86.597656 58.515625 87.976562 59.011719 88.617188 60.003906 C 89.261719 60.996094 89.210938 62.546875 88.464844 64.660156 L 87.894531 66.277344 C 87.152344 68.390625 86.109375 69.945312 84.765625 70.9375 C 83.425781 71.929688 81.699219 72.425781 79.585938 72.425781 C 78.484375 72.425781 77.328125 72.402344 76.113281 72.359375 L 73.183594 72.230469 C 71.023438 72.121094 68.800781 71.972656 66.519531 71.777344 Z M 108.488281 72.101562 L 102.664062 72.101562 L 105.910156 62.882812 L 97.824219 62.882812 L 94.578125 72.101562 L 88.757812 72.101562 L 96.730469 49.457031 L 102.550781 49.457031 L 99.421875 58.351562 L 107.507812 58.351562 L 110.640625 49.457031 L 116.460938 49.457031 Z M 108.488281 72.101562 "/>
<path style=" stroke:none;fill-rule:nonzero;fill:rgb(16.862745%,16.470588%,16.078431%);fill-opacity:1;" d="M 29.46875 100.164062 L 23.574219 100.164062 L 23.574219 92.730469 L 29.46875 92.730469 L 29.46875 94.214844 L 25.488281 94.214844 L 25.488281 95.648438 L 28.621094 95.648438 L 28.621094 97.136719 L 25.488281 97.136719 L 25.488281 98.675781 L 29.46875 98.675781 Z M 36.636719 101.863281 C 36.140625 101.933594 35.667969 101.96875 35.214844 101.96875 C 34.761719 101.96875 34.390625 101.824219 34.097656 101.53125 C 33.808594 101.242188 33.664062 100.855469 33.664062 100.375 L 33.664062 100.269531 L 33.34375 100.269531 C 32.601562 100.269531 32.0625 100.101562 31.726562 99.765625 C 31.390625 99.429688 31.222656 98.886719 31.222656 98.144531 L 31.222656 94.746094 C 31.222656 94.003906 31.390625 93.464844 31.726562 93.128906 C 32.0625 92.792969 32.601562 92.621094 33.34375 92.621094 L 36 92.621094 C 36.742188 92.621094 37.285156 92.792969 37.621094 93.128906 C 37.957031 93.464844 38.125 94.003906 38.125 94.746094 L 38.125 98.144531 C 38.125 98.886719 37.957031 99.429688 37.621094 99.765625 C 37.285156 100.101562 36.742188 100.269531 36 100.269531 L 35.46875 100.269531 L 35.46875 100.375 C 35.46875 100.480469 35.503906 100.570312 35.574219 100.640625 C 35.644531 100.710938 35.734375 100.746094 35.839844 100.746094 L 36.636719 100.746094 Z M 36.210938 94.746094 C 36.210938 94.320312 36 94.109375 35.574219 94.109375 L 33.769531 94.109375 C 33.34375 94.109375 33.132812 94.320312 33.132812 94.746094 L 33.132812 98.144531 C 33.132812 98.570312 33.34375 98.78125 33.769531 98.78125 L 35.574219 98.78125 C 36 98.78125 36.210938 98.570312 36.210938 98.144531 Z M 45.078125 92.730469 L 46.992188 92.730469 L 46.992188 98.144531 C 46.992188 98.886719 46.824219 99.429688 46.488281 99.765625 C 46.152344 100.101562 45.609375 100.269531 44.867188 100.269531 L 42.425781 100.269531 C 41.679688 100.269531 41.140625 100.101562 40.804688 99.765625 C 40.46875 99.429688 40.300781 98.886719 40.300781 98.144531 L 40.300781 92.730469 L 42.210938 92.730469 L 42.210938 98.144531 C 42.210938 98.570312 42.425781 98.78125 42.851562 98.78125 L 44.441406 98.78125 C 44.867188 98.78125 45.078125 98.570312 45.078125 98.144531 Z M 52.886719 100.164062 L 49.0625 100.164062 L 49.0625 98.675781 L 50.019531 98.675781 L 50.019531 94.214844 L 49.0625 94.214844 L 49.0625 92.730469 L 52.886719 92.730469 L 52.886719 94.214844 L 51.929688 94.214844 L 51.929688 98.675781 L 52.886719 98.675781 Z M 54.957031 92.730469 L 59.414062 92.730469 C 60.160156 92.730469 60.699219 92.898438 61.035156 93.234375 C 61.371094 93.570312 61.539062 94.109375 61.539062 94.851562 L 61.539062 95.914062 C 61.539062 96.660156 61.371094 97.199219 61.035156 97.535156 C 60.699219 97.871094 60.160156 98.039062 59.414062 98.039062 L 56.867188 98.039062 L 56.867188 100.164062 L 54.957031 100.164062 Z M 59.628906 94.851562 C 59.628906 94.429688 59.414062 94.214844 58.992188 94.214844 L 56.867188 94.214844 L 56.867188 96.550781 L 58.992188 96.550781 C 59.414062 96.550781 59.628906 96.339844 59.628906 95.914062 Z M 69.980469 96.019531 L 68.496094 98.675781 L 67.007812 98.675781 L 65.523438 96.019531 L 65.523438 100.164062 L 63.609375 100.164062 L 63.609375 92.730469 L 65.628906 92.730469 L 67.75 96.660156 L 69.875 92.730469 L 71.894531 92.730469 L 71.894531 100.164062 L 69.980469 100.164062 Z M 80.175781 100.164062 L 74.28125 100.164062 L 74.28125 92.730469 L 80.175781 92.730469 L 80.175781 94.214844 L 76.195312 94.214844 L 76.195312 95.648438 L 79.328125 95.648438 L 79.328125 97.136719 L 76.195312 97.136719 L 76.195312 98.675781 L 80.175781 98.675781 Z M 88.617188 100.164062 L 86.601562 100.164062 L 84.050781 95.703125 L 84.050781 100.164062 L 82.140625 100.164062 L 82.140625 92.730469 L 84.160156 92.730469 L 86.707031 97.191406 L 86.707031 92.730469 L 88.617188 92.730469 Z M 94.617188 100.164062 L 92.707031 100.164062 L 92.707031 94.214844 L 90.476562 94.214844 L 90.476562 92.730469 L 96.847656 92.730469 L 96.847656 94.214844 L 94.617188 94.214844 Z M 94.617188 100.164062 "/>
</g>
</svg>
