<?xml version="1.0" encoding="UTF-8"?> <svg xmlns="http://www.w3.org/2000/svg" viewBox="0 0 724.4 200"><path d="m220.2 0h17.8l31.8 93 31.7-93h17.9l-40.1 113.3h-19.1zm459.5 65.7v47.7h-16.1v-46.2c0-12-6.9-18.4-17.8-18.4-10.8 0-20.3 6.7-20.3 23v41.5h-16.1v-77.6h16.1v10.2c5.3-8.3 13.7-12.2 24.3-12.2 17.5 0 29.9 11.9 29.9 32zm-101.9 8.9c0-14.7-10.8-25.4-25.2-25.4-14.3 0-25.1 10.7-25.1 25.4s10.8 25.4 25.1 25.4 25.2-10.7 25.2-25.4zm16.1-38.9v77.7h-16.1v-11.6c-6 8.5-15.3 13.6-27.6 13.6-21.2 0-38.8-17.9-38.8-40.9s17.6-40.9 38.8-40.9c12.3 0 21.7 5.2 27.6 13.5v-11.4zm-205.8 0v77.7h-16.1v-10.2c-5.3 8.3-13.7 12.2-24.3 12.2-17.6 0-29.9-11.9-29.9-32v-47.7h16.2v46.2c0 12 6.9 18.4 17.8 18.4s20.3-6.7 20.3-23v-41.6zm15.4-35.7h16.1v113.4h-16.1zm27.1 74.6c0-23.1 17.5-40.9 41-40.9 15.3 0 28.4 7.9 34.6 20.1l-13.8 8c-3.5-7.5-11.3-12.3-20.9-12.3-14 0-24.7 10.7-24.7 25s10.7 25 24.7 25c9.6 0 17.4-4.9 21.2-12.3l13.9 7.9c-6.5 12.2-19.7 20.2-35 20.2-23.4.1-41-17.8-41-40.7zm-183.9 92.8h12.5c4.6 0 8.4-4 8.4-9.1s-3.8-9-8.4-9h-12.5zm9.4 10.3h-9.4v21.1h-11.7v-60.4h24.2c11.1 0 20 8.9 20 19.9 0 7.6-4.8 14.4-11.7 17.6l13.4 22.9h-12.6zm73.2-.5c0-12.7-9-22.8-21.8-22.8-13.5 0-22.8 9.9-22.8 22.8s9.2 22.8 23.6 22.8c7.9 0 14.1-3 18.2-8.3l-8.9-5.1c-2 2.1-5.2 3.6-9.1 3.6-6 0-10.8-2.5-12.4-8.4h32.7c.3-1.5.5-3 .5-4.6zm-33.3-4c1.3-5.6 5.4-8.9 11.5-8.9 4.8 0 9.5 2.6 10.9 8.9zm385.3 4c0-12.7-9-22.8-21.8-22.8-13.5 0-22.8 9.9-22.8 22.8s9.2 22.8 23.6 22.8c7.9 0 14.1-3 18.2-8.3l-8.9-5.1c-2 2.1-5.2 3.6-9.1 3.6-6 0-10.8-2.5-12.4-8.4h32.7c.3-1.5.5-3 .5-4.6zm-33.3-4c1.3-5.6 5.4-8.9 11.5-8.9 4.8 0 9.5 2.6 10.9 8.9zm-276.6 4c0-7.3-5.2-12.4-12.2-12.4s-12.1 5-12.1 12.4 5.2 12.4 12.1 12.4c7 0 12.2-5 12.2-12.4zm11-21.6v43.1h-10.9v-5.2c-3.1 4-7.8 6.4-14.2 6.4-11.5 0-21-9.9-21-22.8s9.5-22.8 21-22.8c6.4 0 11.1 2.5 14.2 6.4v-5.2zm11.8 43.2h10.9v-60.4h-10.9zm48-11.2v-13.9h23v-11h-23v-13.2h25.2v-11.2h-36.8v60.4h37.3v-11.2h-25.7zm45.3-19.7c0-2.4 2.3-3.7 5.2-3.7 3.2 0 5.7 1.6 7.1 4.5l9.3-5.1c-3.3-5.9-9.3-9.1-16.3-9.1-8.9 0-16.3 4.9-16.3 13.7 0 15.2 22.4 11.7 22.4 18.1 0 2.6-2.5 3.8-6.1 3.8-4.4 0-7.4-2.1-8.6-5.7l-9.5 5.3c3.1 6.6 9.4 10.3 18.1 10.3 9.2 0 17.3-4.5 17.3-13.7-.3-15.9-22.6-11.9-22.6-18.4zm54.6-1.8v-10.5h-9.9v-14.6l-10.9 6.3v8.3h-7.6v10.5h7.6v17.4c0 10 3.6 15.3 17.1 15.3h3.7v-9.9h-2.8c-5 0-7.1-1.3-7.1-5.4v-17.4zm41.2 11.1c0-7.3-5.2-12.4-12.2-12.4s-12.1 5-12.1 12.4 5.2 12.4 12.1 12.4 12.2-5 12.2-12.4zm10.9-21.6v43.1h-10.9v-5.2c-3.1 4-7.8 6.4-14.2 6.4-11.5 0-21-9.9-21-22.8 0-12.8 9.5-22.8 21-22.8 6.4 0 11.1 2.5 14.2 6.4v-5.2zm36.5 10.5v-10.5h-9.9v-14.6l-10.9 6.3v8.3h-7.6v10.5h7.6v17.4c0 10 3.6 15.3 17.1 15.3h3.7v-9.9h-2.8c-5 0-7.1-1.3-7.1-5.4v-17.4zm62-126.3h-4.7v-4.1h13.8v4.1h-4.6v12.7h-4.5zm13.2-4.1h4.2l5 6.6 5.3-6.6h3.9v16.8h-4.5v-9.7l-4.8 5.7-4.7-5.7v9.7h-4.5z"></path><path d="m0 0 100 100v100l-100-100z"></path><path d="m100 100 100-100h-100z"></path></svg> 