<?xml version="1.0" encoding="utf-8"?>
<!-- Generator: Adobe Illustrator 23.0.1, SVG Export Plug-In . SVG Version: 6.00 Build 0)  -->
<svg version="1.1" id="Layer_1" xmlns="http://www.w3.org/2000/svg" xmlns:xlink="http://www.w3.org/1999/xlink" x="0px" y="0px"
	 width="217px" height="79.4px" viewBox="0 0 217 79.4" style="enable-background:new 0 0 217 79.4;" xml:space="preserve">
<style type="text/css">
	.st0{fill:#FFFFFF;}
</style>
<title>SavChamber_Reverse_Logo</title>
<path class="st0" d="M15.9,1.1v6.5l-2.1-0.1l-0.9-3.8c-0.7-0.5-2.5-2-4.6-2C5.5,1.7,4,3.2,4,5.6c0,2.7,3,3.6,6,5.1
	c2.6,1.3,7.4,3.1,7.4,7.3c0,4.2-3.6,7.8-8.7,7.8c-2.8,0.1-5.7-0.3-8.4-1.2L0,17.9l2-0.2l1.2,4.2c0.7,0.6,2.4,2.2,4.9,2.2
	c3,0,5.2-2,5.2-4.5c0-2.9-3.7-4.2-6.7-5.6c-2.9-1.4-6.3-2.9-6.3-7.5C0.3,3.1,2.9,0,8.3,0C10.9,0,13.4,0.4,15.9,1.1z"/>
<path class="st0" d="M21.4,24.4l1.4-0.8l9.8-23.2h2l8.7,23.3l2,0.7v0.9H35v-0.9l3.6-0.8l-2-5.8l-8.8,0l-2.2,5.8l3.7,0.8v0.9h-7.7
	V24.4z M35.9,16.1L32.2,6.1l-3.9,10.1H35.9z"/>
<path class="st0" d="M60.9,1.3V0.5h7.9v0.8L67.2,2l-9.5,23.4h-2L47.9,2.1l-2-0.8V0.5h10.3v0.8l-3.5,0.8l5.5,17.6l6.5-17.6L60.9,1.3z
	"/>
<path class="st0" d="M68.7,24.4l1.4-0.8l9.8-23.2h2l8.7,23.3l2,0.7v0.9H82.3v-0.9l3.6-0.8l-2-5.8l-8.8,0l-2.2,5.8l3.7,0.8v0.9h-7.7
	L68.7,24.4z M83.2,16.1L79.5,6.1l-3.9,10.1H83.2z"/>
<path class="st0" d="M102.8,5l0.4,18.5l4.1,0.8v0.9h-9.4v-0.9l2.8-0.8l0.4-20.4l-1-1.1l-2.8-0.8V0.5h7.6l14.8,17.4l-0.3-15.7
	l-3.9-0.8V0.5h8.7v0.8l-2.5,0.8l-0.4,23.3l-1.3,0L102.8,5z"/>
<path class="st0" d="M135.2,5l0.4,18.5l4.1,0.8v0.9h-9.4v-0.9l2.8-0.8l0.4-20.4l-0.9-1l-2.8-0.8V0.6h7.6L152.1,18l-0.3-15.7
	l-3.9-0.8V0.6h8.8v0.8l-2.5,0.8l-0.4,23.3l-1.3,0L135.2,5z"/>
<path class="st0" d="M160.1,24.4l1.4-0.8l9.8-23.2h2l8.7,23.3l2,0.7v0.9h-10.3v-0.9l3.6-0.8l-2-5.8l-8.8,0l-2.2,5.8l3.7,0.8v0.9
	h-7.7V24.4z M174.6,16.1l-3.7-10.1L167,16.1H174.6z"/>
<path class="st0" d="M197.3,23.6l3.5,0.8v0.9h-11.6v-0.9l3.5-0.8V2.2l-3.5-0.8V0.5h11.6v0.8l-3.5,0.8v9.5h11.5V2.2l-3.5-0.8V0.5H217
	v0.8l-3.5,0.8v21.4l3.5,0.8v0.9h-11.7v-0.9l3.5-0.8V13.4h-11.5V23.6z"/>
<path class="st0" d="M25.2,49.2l4.7-11.7H32l4.7,11.7h-2.3l-1.1-2.9h-4.7l-1.1,2.9L25.2,49.2z M29.3,44.5h3.1
	c-0.6-1.8-1.1-3.3-1.6-4.5L29.3,44.5z"/>
<path class="st0" d="M41.1,49.2V37.5h4.2c0.6,0,1.1,0,1.7,0.1c0.4,0.1,0.9,0.3,1.3,0.5c0.4,0.2,0.7,0.6,0.9,1c0.2,0.5,0.3,1,0.3,1.6
	c0,0.6-0.2,1.2-0.6,1.7c-0.4,0.5-1.1,0.9-1.8,1c0.7,0.4,1.3,1.1,1.5,1.8l1.6,3.9H48l-1.4-3.5c-0.1-0.4-0.4-0.8-0.7-1.2
	c-0.3-0.2-0.8-0.3-1.2-0.3h-1.6v4.9L41.1,49.2z M43.2,42.5h2c1.5,0,2.2-0.6,2.2-1.7c0.1-0.5-0.1-0.9-0.5-1.2c-0.5-0.3-1-0.4-1.5-0.3
	h-2.2L43.2,42.5z"/>
<path class="st0" d="M55,49.2V37.5h7.4v1.7h-5.3v3.1h5v1.8h-5v3.3h5.5v1.7L55,49.2z"/>
<path class="st0" d="M66.4,49.2l4.7-11.7h2.1l4.7,11.7h-2.3l-1.1-2.9h-4.7l-1.1,2.9L66.4,49.2z M70.5,44.5h3.1
	c-0.6-1.8-1.1-3.3-1.5-4.5L70.5,44.5z"/>
<path class="st0" d="M95.1,49.4c-0.8,0-1.5-0.1-2.2-0.4c-0.7-0.3-1.3-0.6-1.9-1.1c-0.6-0.5-1-1.2-1.3-1.9c-0.3-0.8-0.5-1.7-0.5-2.6
	c0-0.7,0.1-1.5,0.3-2.2c0.2-0.6,0.5-1.2,0.9-1.7c0.4-0.5,0.8-0.9,1.3-1.2c0.5-0.3,1-0.6,1.5-0.7c0.5-0.2,1.1-0.2,1.7-0.2
	c1.4,0,2.8,0.4,3.9,1.3L98.1,40c-0.9-0.6-1.9-0.9-2.9-0.9c-0.5,0-1,0.1-1.4,0.3c-0.4,0.2-0.9,0.5-1.2,0.8c-0.4,0.4-0.6,0.9-0.8,1.4
	c-0.2,0.6-0.3,1.2-0.3,1.8c-0.1,1.1,0.3,2.3,1.1,3.1c0.7,0.8,1.7,1.2,2.8,1.2c1.2,0,2.3-0.4,3.2-1.2l0.7,1.6
	C98,49,96.6,49.4,95.1,49.4z"/>
<path class="st0" d="M104.3,49.2V37.5h2v4.8h5.5v-4.8h2v11.7h-2v-5.1h-5.5v5.1L104.3,49.2z"/>
<path class="st0" d="M118.2,49.2l4.7-11.7h2.1l4.7,11.7h-2.3l-1.1-2.9h-4.7l-1.1,2.9H118.2z M122.4,44.5h3.1
	c-0.6-1.8-1.1-3.3-1.6-4.5L122.4,44.5z"/>
<path class="st0" d="M134.2,49.2V37.5h2.4c0.2,0.4,0.7,1.7,1.8,3.9c1,2.2,1.8,4,2.3,5.1c0.4-0.9,0.8-1.8,1.3-2.8
	c0.4-1,0.9-2.1,1.5-3.4c0.6-1.3,1-2.2,1.2-2.8h2.4v11.7h-1.9v-8.4c-0.3,0.6-1.5,3.4-3.8,8.3h-1.5c-0.3-0.6-0.7-1.5-1.2-2.6
	c-0.5-1.1-1-2.1-1.4-3c-0.4-0.9-0.8-1.8-1.2-2.6v8.2L134.2,49.2z"/>
<path class="st0" d="M152.9,49.2V37.5h3.2c0.3,0,0.6,0,0.9,0c0.3,0,0.6,0,0.9,0.1c0.3,0,0.6,0.1,0.9,0.2c0.3,0.1,0.5,0.2,0.8,0.4
	c0.2,0.1,0.5,0.3,0.7,0.5c0.2,0.2,0.3,0.5,0.4,0.8c0.1,0.3,0.2,0.7,0.2,1c0.1,1.1-0.6,2.1-1.6,2.5c0.6,0.1,1.2,0.5,1.6,1.1
	c0.4,0.5,0.5,1.2,0.5,1.8c0,0.4-0.1,0.9-0.3,1.3c-0.2,0.4-0.4,0.8-0.8,1c-0.4,0.3-0.9,0.6-1.3,0.7c-0.6,0.2-1.3,0.3-1.9,0.3
	L152.9,49.2z M154.9,42.4h1.7c0.3,0,0.5,0,0.8-0.1c0.2-0.1,0.4-0.1,0.7-0.3c0.2-0.1,0.4-0.3,0.5-0.5c0.1-0.2,0.2-0.5,0.2-0.8
	c0.1-0.5-0.2-0.9-0.6-1.2c-0.6-0.3-1.2-0.4-1.9-0.3h-1.3V42.4z M154.9,47.5h1.8c1.6,0,2.5-0.5,2.5-1.6c0.1-0.5-0.1-1.1-0.6-1.4
	c-0.6-0.3-1.3-0.4-2-0.4h-1.8V47.5z"/>
<path class="st0" d="M166.6,49.2V37.5h7.4v1.7h-5.3v3.1h5v1.8h-5v3.3h5.5v1.7L166.6,49.2z"/>
<path class="st0" d="M179.4,49.2V37.5h4.2c0.6,0,1.1,0,1.7,0.1c0.5,0.1,0.9,0.3,1.3,0.5c0.4,0.2,0.7,0.6,0.9,1
	c0.2,0.5,0.3,1,0.3,1.6c0,0.6-0.2,1.2-0.6,1.7c-0.4,0.5-1.1,0.9-1.8,1c0.7,0.4,1.3,1.1,1.6,1.8l1.6,3.9h-2.2l-1.3-3.5
	c-0.1-0.4-0.4-0.8-0.7-1.2c-0.3-0.2-0.8-0.3-1.2-0.3h-1.6v4.9L179.4,49.2z M181.5,42.5h2c1.5,0,2.2-0.6,2.2-1.7
	c0.1-0.5-0.1-0.9-0.5-1.2c-0.5-0.3-1-0.4-1.5-0.3h-2.1L181.5,42.5z"/>
<path class="st0" d="M106.4,67.7c0.4,2.3,0,4.7-1,6.7c-1-2.1-1.4-4.4-1-6.7c-0.8,1.4-1.9,2.1-3.3,3c0,3.4,1.6,6.5,4.2,8.6
	c2.6-2.1,4.2-5.3,4.2-8.6C108.4,69.9,107.3,69.1,106.4,67.7z"/>
<path class="st0" d="M102.5,64.6c-1.3,1.3-2.8,2.3-4.6,3c0.6-1.7,1.6-3.3,2.9-4.5c1-1,2.1-1.8,3.3-2.4c-1.7,0.1-5,0.5-7.4,2.9
	c-2.8,2.8-2.9,6.7-2.8,8c1.4,0,5.3-0.2,8.1-2.9c1.8-2,2.9-4.6,2.9-7.3C104.3,62.5,103.5,63.6,102.5,64.6z"/>
<path class="st0" d="M102.5,64.6c-1.3,1.3-2.8,2.3-4.6,3l-4,4c1.4,0,5.3-0.2,8.1-2.9c1.8-2,2.9-4.6,2.9-7.3
	C104.3,62.5,103.5,63.6,102.5,64.6z"/>
<path class="st0" d="M114.1,63.5c-2.4-2.4-5.7-2.8-7.4-2.9c1.2,0.6,2.3,1.4,3.2,2.4c1.3,1.3,2.3,2.8,3,4.6c-1.7-0.6-3.3-1.6-4.5-2.9
	c-0.9-0.9-1.7-2-2.3-3.1c0.1,1.8,0.6,4.9,2.9,7.2c2.8,2.8,6.7,2.9,8,2.9C117,70.2,116.9,66.2,114.1,63.5z"/>
<path class="st0" d="M114.1,63.5c-2.4-2.4-5.7-2.8-7.4-2.9c1.2,0.6,2.3,1.4,3.2,2.4c1.3,1.3,2.3,2.8,3,4.6l4.1,4
	C117,70.2,116.9,66.2,114.1,63.5z"/>
<path class="st0" d="M105.5,74.5c1-2.1,1.4-4.4,1-6.7c0.8,1.4,1.9,2.1,3.2,3c0,3.4-1.6,6.5-4.2,8.6L105.5,74.5z"/>
</svg>
