<svg xmlns="http://www.w3.org/2000/svg" viewBox="0 0 422.53 105.21"><title>passport-parking</title><g id="Layer_2" data-name="Layer 2"><g id="Layer_1-2" data-name="Layer 1"><g id="Passport-Parking"><g id="word"><path id="Fill-5" d="M141,10.67H138V3.54H141c2.3,0,3.2,1.76,3.2,3.58S143.34,10.67,141,10.67ZM141.5.19h-7.29A.21.21,0,0,0,134,.4V17.49a2,2,0,0,0,2,2h2V14h3.66a6.57,6.57,0,0,0,6.66-6.87A6.63,6.63,0,0,0,141.5.19Z" fill="#1f2042"/><path id="Fill-6" d="M159.14,15.51a6.35,6.35,0,0,1-3.26,1c-1.2,0-2.06-.59-2.06-1.82s.76-1.71,2.44-1.71h2.88ZM157,4.47a30.39,30.39,0,0,0-5.62.58.21.21,0,0,0-.16.2V8a.2.2,0,0,0,.25.2A25.65,25.65,0,0,1,156,7.57c2.37.06,3.1.8,3.1,2v1h-3.5C152,10.51,150,12.25,150,15a4.34,4.34,0,0,0,4.64,4.65,8.43,8.43,0,0,0,4.73-1.74h.11a1.86,1.86,0,0,0,1.84,1.52h1.51a.2.2,0,0,0,.21-.2V9.79C163,6.23,160.72,4.47,157,4.47Z" fill="#1f2042"/><path id="Fill-7" d="M172.29,10.46c-1.6-.27-2.8-.51-2.8-1.47s.84-1.31,2.85-1.31A25.34,25.34,0,0,1,176,8a.21.21,0,0,0,.25-.19L176.39,5a.22.22,0,0,0-.18-.22,27.53,27.53,0,0,0-4.3-.34c-3.75,0-6.33,1.23-6.33,4.73,0,3.19,2.47,3.93,4.54,4.31,1.73.29,3.15.5,3.15,1.52s-.76,1.55-2.61,1.55a40.59,40.59,0,0,1-4.73-.44.2.2,0,0,0-.24.2v2.92a.21.21,0,0,0,.18.21,47.12,47.12,0,0,0,5,.29c4.1,0,6.33-1.57,6.33-4.89s-2.64-4-4.89-4.41" fill="#1f2042"/><path id="Fill-8" d="M185.92,10.46c-1.6-.27-2.79-.51-2.79-1.47S184,7.68,186,7.68a25.34,25.34,0,0,1,3.68.36.2.2,0,0,0,.24-.19L190,5a.21.21,0,0,0-.17-.22,27.62,27.62,0,0,0-4.3-.34c-3.75,0-6.33,1.23-6.33,4.73,0,3.19,2.47,3.93,4.53,4.31,1.74.29,3.15.5,3.15,1.52s-.76,1.55-2.6,1.55a40.74,40.74,0,0,1-4.74-.44.21.21,0,0,0-.24.2v2.92a.21.21,0,0,0,.19.21,47.09,47.09,0,0,0,5,.29c4.11,0,6.33-1.57,6.33-4.89s-2.63-4-4.89-4.41" fill="#1f2042"/><path id="Fill-9" d="M199.27,16.58a9.38,9.38,0,0,1-2.5-.35V9.15a6.45,6.45,0,0,1,3.45-1.34c1.57,0,2.69,1.18,2.69,4.12C202.91,15,201.74,16.58,199.27,16.58Zm2.2-12.08a8.05,8.05,0,0,0-4.7,1.73,1.46,1.46,0,0,0-1.47-1.44h-2.15a.21.21,0,0,0-.21.21V22.79a2,2,0,0,0,2,1.95h1.64a.21.21,0,0,0,.21-.2V19.31a13.25,13.25,0,0,0,3,.37c4,0,7-2.19,7-8C206.82,6.66,204.32,4.5,201.47,4.5Z" fill="#1f2042"/><path id="Fill-10" d="M216.69,16.54c-2.58,0-3.67-1.6-3.67-4.44s1.09-4.41,3.67-4.41,3.64,1.61,3.64,4.41S219.27,16.54,216.69,16.54Zm0-12.08c-4.24,0-7.56,2.32-7.56,7.64s3.32,7.65,7.56,7.65,7.57-2.38,7.57-7.65S220.93,4.46,216.67,4.46Z" fill="#1f2042"/><path id="Fill-11" d="M230.3,7.16V6.22a1.44,1.44,0,0,0-1.46-1.44h-2a.2.2,0,0,0-.2.2v12.5a2,2,0,0,0,2,1.95h1.63a.21.21,0,0,0,.21-.21v-9a25,25,0,0,1,5.13-1.61.2.2,0,0,0,.17-.2V4.92a.21.21,0,0,0-.22-.21c-2.17.16-3.77,1.49-5.27,2.45" fill="#1f2042"/><path id="Fill-12" d="M238.25,16.19c0,2.92,1.77,3.53,3.7,3.53a23.27,23.27,0,0,0,3.85-.39.2.2,0,0,0,.17-.2V16.35a.21.21,0,0,0-.26-.2,7.89,7.89,0,0,1-1.78.26c-1,0-1.85-.35-1.85-1.55V8h3.7a.21.21,0,0,0,.21-.21V5a.2.2,0,0,0-.21-.2h-3.73V3a1.44,1.44,0,0,0-1.46-1.44h-2.13a.2.2,0,0,0-.21.2V16.19" fill="#1f2042"/></g><g id="Name_Parking" data-name="Name/Parking"><g id="word-2" data-name="word"><path id="Fill-1" d="M203.3,79.14A17.56,17.56,0,0,1,194.19,82c-3.34,0-5.77-1.67-5.77-5.17,0-3.11,2.13-4.86,6.83-4.86h8.05Zm-6-31.36a84.25,84.25,0,0,0-15.71,1.65.59.59,0,0,0-.46.57v7.76a.58.58,0,0,0,.7.58c2.19-.47,9-1.84,12.81-1.75,6.61.17,8.66,2.27,8.66,5.62v2.73h-9.79c-10.18,0-15.87,4.94-15.87,12.76,0,8.8,5.77,13.21,13,13.21,4.25,0,8.73-1.75,13.21-4.94h.31a5.22,5.22,0,0,0,5.15,4.33h4.21a.58.58,0,0,0,.58-.58V62.89C214.08,52.79,207.71,47.78,197.3,47.78Z" fill="#1f2042"/><path id="Fill-2" d="M145.07,65.37h8.56c6.45,0,9-5.08,9-10.08,0-5.16-2.5-10.16-9-10.16h-8.56Zm0,9.4v15a.49.49,0,0,1-.49.49h-4.75A5.83,5.83,0,0,1,134,84.41V36.26a.61.61,0,0,1,.61-.61h20.31c11.6,0,19,8.87,19,19.64s-7.35,19.48-18.57,19.48Z" fill="#1f2042"/><path id="Fill-3" d="M247.76,59.52c-5,.86-9.21,2.49-14.37,4.56V89.74a.49.49,0,0,1-.49.49h-9.71a.49.49,0,0,1-.49-.49V49.18a.49.49,0,0,1,.49-.49h4.37a5.3,5.3,0,0,1,5.3,5.3v1.45c4.2-2.73,8.68-6.53,14.78-6.95a.5.5,0,0,1,.53.5V59.05a.49.49,0,0,1-.41.47" fill="#1f2042"/><path id="Fill-4" d="M291.71,87.82l-14-24.22,14,24.34A1,1,0,0,1,291.71,87.82ZM271,70.89l9.74,17.41.06.08Z" fill="#1f2042"/><path id="Fill-5-2" data-name="Fill-5" d="M292.24,90.23H282.16a.48.48,0,0,1-.43-.25l-.88-1.58,0,0L271,70.89,266.17,76V89.75a.47.47,0,0,1-.48.48h-9.6a.49.49,0,0,1-.49-.48V34.09a.49.49,0,0,1,.49-.49h9.59a.48.48,0,0,1,.49.49V62.24l12-12.85a.48.48,0,0,1,.36-.15H290a.48.48,0,0,1,.35.82L277.73,63.6l14,24.34.9,1.56a.48.48,0,0,1-.42.73" fill="#1f2042"/><path id="Fill-6-2" data-name="Fill-6" d="M307.92,90.23h-9.71a.49.49,0,0,1-.49-.49V49.18a.49.49,0,0,1,.49-.49h9.71a.49.49,0,0,1,.49.49V89.74A.49.49,0,0,1,307.92,90.23Zm.15-46.62h-10a.49.49,0,0,1-.49-.49v-9a.49.49,0,0,1,.49-.49h10a.49.49,0,0,1,.49.49v9A.49.49,0,0,1,308.07,43.61Z" fill="#1f2042"/><path id="Fill-7-2" data-name="Fill-7" d="M344.9,90.23a.49.49,0,0,1-.49-.49V62.26c0-3.18-1.21-4.85-4.7-4.85-3.1,0-7.2,1.74-10.84,3.64V89.74a.49.49,0,0,1-.49.49h-9.7a.48.48,0,0,1-.49-.49V49.18a.48.48,0,0,1,.49-.49h5.12a4.39,4.39,0,0,1,4.39,4.4h.31c5.07-3.11,10.08-5.31,14.48-5.31,7.42,0,12.12,3.64,12.12,12.43V89.74a.49.49,0,0,1-.49.49H344.9" fill="#1f2042"/><path id="Fill-8-2" data-name="Fill-8" d="M380.73,56.05c-5.46,0-7.58,2.65-7.58,6.82s2.12,6.75,7.58,6.75,7.5-2.43,7.5-6.83C388.23,58.7,386.11,56.05,380.73,56.05Zm-2.28,33c-3,.22-5.76,1.36-5.76,4.77s2.81,4,8.64,4c6.9,0,10.62-1.21,10.62-5.08,0-2.58-1.75-3.71-4.4-3.71Zm2.13-41.28c4.24,0,9,.91,14.25.91a48.51,48.51,0,0,0,8.59-.72.48.48,0,0,1,.58.47v7.34a.48.48,0,0,1-.48.49c-2.2,0-4.87-.07-7.4-.07a9.27,9.27,0,0,1,2.88,7c0,10-8.11,13.72-18,13.72a36.82,36.82,0,0,1-5.39-.3,4.29,4.29,0,0,0-.91,2.53c0,1.59.84,1.75,3,1.75h12.12C396.88,81,403,82.84,403,91.71c0,9.33-8.71,13.5-23.11,13.5-12.51,0-18.2-3.34-18.2-10.09,0-3.86,1.59-7.27,6.9-8.94v-.46a6.61,6.61,0,0,1-3.26-5.46c0-2.42,1.21-3.82,4.09-5.57-4.32-2-7.12-6-7.12-11.67C362.31,53.69,369.05,47.78,380.58,47.78Z" fill="#1f2042"/></g></g><g id="Icon_Parking" data-name="Icon/Parking"><g id="Parking"><path id="Fill-9-2" data-name="Fill-9" d="M36.94,38H1.06A1.06,1.06,0,0,1,0,36.94V1.06A1.07,1.07,0,0,1,1.06,0H36.94A1.06,1.06,0,0,1,38,1.06V36.94A1.05,1.05,0,0,1,36.94,38" fill="#1f2042"/><path id="Fill-10-2" data-name="Fill-10" d="M53.06,38H88.94A1.05,1.05,0,0,0,90,36.94V19A19,19,0,0,0,71,0H53.06A1.06,1.06,0,0,0,52,1.06V36.94A1.05,1.05,0,0,0,53.06,38" fill="#1f2042"/><path id="Fill-11-2" data-name="Fill-11" d="M37,52H1.06A1.06,1.06,0,0,0,0,53.06V71A19,19,0,0,0,19,90H37a1.05,1.05,0,0,0,1-1.06V53.06A1.05,1.05,0,0,0,37,52" fill="#1f2042"/><path id="Fill-12-2" data-name="Fill-12" d="M90,71A19,19,0,1,1,71,52,19,19,0,0,1,90,71" fill="#f8a219"/></g></g><g id="SM"><g style="isolation:isolate"><g style="isolation:isolate"><path d="M413.2,36.08a.36.36,0,0,1-.13.16.31.31,0,0,1-.17,0,.49.49,0,0,1-.23-.08l-.29-.17a1.85,1.85,0,0,0-.4-.18,1.7,1.7,0,0,0-.53-.07,1.77,1.77,0,0,0-.49.06,1.06,1.06,0,0,0-.35.19.77.77,0,0,0-.22.29,1.06,1.06,0,0,0-.06.37.59.59,0,0,0,.14.42,1.22,1.22,0,0,0,.37.29,3.38,3.38,0,0,0,.54.21l.61.21a4.11,4.11,0,0,1,.61.25,2,2,0,0,1,.54.36,1.6,1.6,0,0,1,.38.53,1.93,1.93,0,0,1,.14.77,2.49,2.49,0,0,1-.17.91,2,2,0,0,1-.49.75,2.18,2.18,0,0,1-.79.5,2.87,2.87,0,0,1-1.06.18,3.08,3.08,0,0,1-.68-.07,3.38,3.38,0,0,1-.64-.19,2.89,2.89,0,0,1-.58-.3,3,3,0,0,1-.47-.39l.39-.64a.37.37,0,0,1,.13-.12.34.34,0,0,1,.17,0,.48.48,0,0,1,.27.1l.34.23a2.94,2.94,0,0,0,.47.23,1.76,1.76,0,0,0,.64.1,1.33,1.33,0,0,0,.89-.27,1,1,0,0,0,.31-.79.7.7,0,0,0-.14-.46,1.11,1.11,0,0,0-.37-.3,3.38,3.38,0,0,0-.54-.21l-.61-.19a4.49,4.49,0,0,1-.61-.23,2.25,2.25,0,0,1-.54-.37,1.71,1.71,0,0,1-.37-.56,2.11,2.11,0,0,1-.14-.84,2,2,0,0,1,.15-.76,2.06,2.06,0,0,1,.46-.67,2.21,2.21,0,0,1,.74-.46,2.67,2.67,0,0,1,1-.18,3.44,3.44,0,0,1,1.18.2,2.58,2.58,0,0,1,.92.56Z" fill="#1f2042"/><path d="M418.48,39.33l.14.35a3.68,3.68,0,0,1,.15-.35l.15-.34,2.15-4a.23.23,0,0,1,.08-.12.18.18,0,0,1,.09-.07l.12,0h1.17V42h-1.19V37.33c0-.09,0-.18,0-.29l0-.31-2.19,4.1a.59.59,0,0,1-.19.22.54.54,0,0,1-.29.07h-.18a.51.51,0,0,1-.28-.07.59.59,0,0,1-.19-.22l-2.22-4.12,0,.33c0,.1,0,.2,0,.29V42h-1.19V34.77h1.17l.12,0a.26.26,0,0,1,.1.07.31.31,0,0,1,.08.12l2.16,4C418.38,39.11,418.43,39.22,418.48,39.33Z" fill="#1f2042"/></g></g></g></g></g></g></svg>