<?xml version="1.0" encoding="UTF-8"?><svg version="1.1" width="286px" height="75px" viewBox="0 0 286.0 75.0" xmlns="http://www.w3.org/2000/svg" xmlns:xlink="http://www.w3.org/1999/xlink"><defs><clipPath id="i0"><path d=""/></clipPath><clipPath id="i1"><path d="M25.9393892,1.34749077 C32.2548601,4.89710294 36,4.23894278 36,4.23894278 C33.5763455,7.36694284 34.5318381,9.50561547 34.5318381,9.50561547 C34.5318381,9.50561547 32.861123,15.9383309 22.0168406,15.6015978 C21.6173218,15.5946405 21.3868302,15.5765515 21.3868302,15.5765515 C14.4356812,15.2039112 11.2217596,14.8374847 9.13699658,14.8187486 L8.85946469,14.8183809 C8.04639618,14.8239354 7.40245868,14.8902753 6.74909451,15.0407795 L6.52723241,15.0949944 C6.30449643,15.1524935 6.07836847,15.219946 5.84191533,15.2982597 C2.56893407,16.61458 0,20 0,20 C2.46695898,12.0088504 10.2366226,10.6869642 12.8488611,10.6493949 C13.990144,10.6340888 18.7801793,10.4754625 22.2948275,10.8581137 C23.2153972,10.7899322 23.8076908,10.6354803 23.8132785,10.3404909 C23.8258508,9.56405676 22.061542,9.4026475 20.4676574,9.41517063 C18.2968453,9.45274003 15.6175546,9.7393806 12.2090722,9.97871157 C8.866245,10.2138682 4.55954367,7.78577203 3.80660432,7.34328803 C5.10294517,8.00979694 9.86923286,7.49634853 14.7053665,5.81129156 C17.4055035,4.86980893 23.9430845,6.09564323 24.9328891,6.28980403 L25.027041,6.30846942 C25.0483409,6.31274584 25.0593303,6.31499976 25.0593303,6.31499976 C25.0593303,6.31499976 22.7921174,5.42088671 20.3215353,4.49996037 L19.8413729,4.32161464 L19.3594569,4.1439967 C19.2791762,4.11453199 19.1989609,4.08515583 19.1188804,4.05589734 L18.6405689,3.88199122 C18.402776,3.79597703 18.1674429,3.71154585 17.9364402,3.6294837 C14.8971925,2.55162797 8.57509157,5.21149244 8.10227975,5.41377179 L8.07419192,5.42585739 C12.8376858,-1.18079041 22.3227659,-0.686822428 25.9393892,1.34749077 Z"/></clipPath><clipPath id="i2"><path d="M36,0 L36,20 L0,20 L0,0 L36,0 Z"/></clipPath><clipPath id="i3"><path d="M11.9732771,1.46917216 C12.4083313,1.83713768 13.2455725,2.43990284 14.1138439,3.0441207 L14.5154363,3.32224395 C15.1839242,3.78312229 15.8369854,4.22361791 16.3056818,4.53751917 L16.5634244,4.7098189 C16.8351596,4.89112944 17,5 17,5 C17,5 13.5246132,4.72613369 9.82841069,2.81418849 C7.16315049,1.43589869 0,2.44306125 0,2.44306125 C6.06751055,-1.02121964 9.90295359,-0.28024489 11.9732771,1.46917216 Z"/></clipPath><clipPath id="i4"><path d="M17,0 L17,5 L0,5 L0,0 L17,0 Z"/></clipPath><clipPath id="i5"><path d="M36,0 L36,19 L0,19 L0,0 L36,0 Z"/></clipPath><clipPath id="i6"><path d="M35.7625589,0 L35.7859664,0.892908003 C36.7621977,6.22194531 34.3291926,10.1385645 30.0800393,10.0966249 C25.8308861,10.0546853 20.3700495,8.82084876 12.8672511,8.82084876 C5.36445268,8.82084876 0.502573211,17.3941185 0,19 C0.256105801,17.7512817 1.68396448,11.4400456 4.88941773,8.82084876 C8.50519102,5.866135 12.7805056,4.73376531 22.6089099,5.16533751 C32.4373142,5.59690971 35.7625589,0 35.7625589,0 Z"/></clipPath><clipPath id="i7"><path d="M6,0 C5.21464988,1.33367166 5.77561425,2.58513068 5.95191734,2.91547261 L5.98697761,2.97838268 C5.9953253,2.9926324 6,3 6,3 L0,0 L6,0 Z"/></clipPath><clipPath id="i8"><path d="M6,0 L6,3 L0,3 L0,0 L6,0 Z"/></clipPath><clipPath id="i9"><path d="M17.3003333,36.8656469 C17.3003333,36.8656469 14.2257237,46.8068364 16.9315995,52.0321387 C19.638846,57.2560605 22.6737037,58.4543597 24.6146966,60.8495776 C24.6146966,60.8495776 19.0137805,53.7716053 17.9651508,50.3989729 C17.3770958,48.5099093 17.2429909,44.3894377 17.2366385,41.1882775 L17.2368186,40.6170799 C17.2423487,38.4716987 17.3003333,36.8656469 17.3003333,36.8656469 Z M37.8808899,39.7564747 C34.8021681,40.0132531 32.1977284,41.1480479 30.3348686,41.8921531 C29.8276883,42.0950908 29.3725967,42.2262411 28.9654816,42.3063118 L28.8571918,42.4070904 C28.8571918,42.4070904 27.4329745,43.9367165 27.8428311,45.3227677 C28.1210949,46.0295985 28.7804294,46.8385885 30.3389809,46.4810315 C31.6302347,46.0213154 33.0380029,45.0356176 34.4759277,43.2008946 C34.4759277,43.2008946 34.8940088,44.6048926 33.8481207,46.4548015 C33.8481207,46.4548015 38.8335666,43.8897786 37.8808899,39.7564747 Z M27.8880661,8.27351041 C29.0778838,12.844442 25.619462,17.293887 25.619462,17.293887 C25.2589527,11.4293997 19.3948512,8.57032415 19.3948512,8.57032415 C21.5812097,10.5196311 22.3913276,12.6332211 22.6051658,14.4099619 C22.6257271,14.4955547 23.135649,16.6974985 22.1445912,18.4921862 C20.7148909,17.2041526 17.0892367,13.9681926 16.6409989,13.8770777 C16.0817297,13.7624938 14.8932828,16.2364018 15.1276823,17.200011 C15.3607112,18.1636203 17.7965476,20.1336352 17.7965476,20.1336352 C17.7965476,20.1336352 17.4237015,18.9201502 17.2770305,18.0076205 C17.2770305,18.0076205 17.7307513,18.9215307 18.5614305,19.506875 C18.5614305,19.506875 18.1145634,17.7674085 18.0693284,16.8010382 L21.6511184,19.1948755 C21.3289903,19.5620962 20.917763,19.8934232 20.391392,20.1557237 C18.5271615,21.0903418 17.7540542,22.4404992 17.4730488,23.6581258 C17.2331662,26.0947595 17.9089498,28.2497653 18.6614958,29.8166657 C20.2762484,32.0586449 22.1473327,31.9026451 23.4577771,31.3545751 C23.7456362,31.2330885 23.9978556,31.5920261 23.792242,31.8294771 C23.792242,31.8294771 22.021223,34.2716329 23.2823201,36.6558065 C23.2823201,36.6558065 23.2842014,36.6597438 23.2878271,36.6672105 L23.3294194,36.7510977 C23.4400342,36.9705671 23.7285996,37.5183413 24.012934,37.8513446 C24.012934,37.8513446 26.4679611,40.7104202 28.7009254,40.2755536 C30.2526232,39.9745983 32.0044515,38.8591308 34.706215,38.3152024 C36.8089574,37.89138 39.0679661,37.6925838 39.9671832,37.6249379 C40.2139196,37.606991 40.4277578,37.4496107 40.5209693,37.2176818 L41.1830453,35.5624275 C41.529847,34.6954553 40.6443375,34.1901817 40.6443375,34.1888011 L37.0269079,32.1980783 C36.7664639,32.0545033 37.6752763,31.2275664 37.9727307,31.2275664 L42.6237117,31.6003092 L33.7686167,23.7078248 L33.7686167,21.980783 L29.6577143,18.8939202 L27.6646326,17.4429842 C31.2395687,13.8729361 27.8880661,8.27351041 27.8880661,8.27351041 Z M28.103014,74.9880127 C28.106506,74.9482028 28.1171737,74.8099773 28.1194745,74.5844274 L28.1197266,74.4387074 C28.1073859,72.5144416 27.4666515,65.9297675 19.89929,59.1791374 C21.4180896,64.7978906 18.9082322,68.1291071 18.9082322,68.1291071 C19.0836892,62.1886907 17.7074484,58.0181125 16.6396281,55.7084875 C16.181795,55.0278867 15.785646,54.3169142 15.4498104,53.5838533 C14.1708934,50.7896626 13.7185434,47.6765697 13.697982,44.7236181 C12.7576422,49.3387266 13.9652798,53.3740129 15.0975257,57.3651223 C16.8246804,63.4615385 11.1716755,73.5849578 11.1716755,73.5849578 C12.9961541,61.7317356 6.67559016,56.4760616 6.05600766,51.33083 C5.46384032,46.4161467 8.24922003,41.7126843 10.541127,38.7624938 C8.99902451,39.5190237 6.25887981,41.3924016 5.0786574,45.5008559 C2.99373489,52.9860843 7.79001619,58.8298636 8.50555173,63.272406 C9.37049986,68.6343807 7.92983348,71.4851731 7.92983348,71.4851731 C3.24595431,65.793252 0,60.7998785 0,51.33083 C0,45.8473687 2.1013716,42.0923298 4.05744289,39.7854658 C4.11364396,39.7095367 4.17258654,39.6349881 4.23015836,39.5604396 C4.23015836,39.556298 4.23289988,39.5535369 4.23975367,39.5480148 C4.76064161,38.8743166 5.36925804,38.2586007 6.07245676,37.7146723 C7.28694811,36.5467447 8.98394618,34.9964106 10.8111662,33.5799879 C13.7445878,31.304876 14.9275517,26.7477497 15.242826,25.2705837 C15.2770949,24.8743719 15.333296,24.4947264 15.4127999,24.1330278 C15.5951107,23.2936661 15.904902,22.575791 16.266782,21.9683583 C15.8116904,21.6052791 15.0838181,20.8280413 14.0132563,19.1645038 C11.9351876,15.9354465 15.1372776,12.5683362 16.1009203,12.4675576 C16.6409989,12.4109559 18.6244853,13.6948479 20.26117,14.8324038 C18.8972661,12.9838754 16.6245498,10.9752057 12.939953,10.1786405 C5.71057671,8.61588161 3.6612939,1.02849412 3.6612939,1.02849412 C7.86814939,3.55486222 12.1558796,4.43978132 16.1064034,4.8000994 C16.1447846,4.79871887 16.2009856,4.80147993 16.2804896,4.8097631 C16.3723304,4.8194268 16.4682834,4.82909051 16.5656072,4.83875421 C17.4785318,4.91330278 18.3722659,4.96300182 19.2413263,4.99889558 C20.289956,5.01132034 21.1151521,4.93263018 21.0767709,4.67447126 C20.9410659,3.78403004 17.2660644,3.71362306 15.7417818,3.22353526 C12.7165195,2.25302336 11.349874,0 11.349874,0 C12.5287257,0.699928212 16.8013775,2.19642167 21.7073195,2.1978022 C24.7737045,2.1978022 27.8167867,4.36661329 29.6673096,5.99287647 C30.2019051,6.46225634 30.6350646,6.88469822 30.9434851,7.19945883 C31.1230543,7.36512231 31.2930283,7.54321056 31.4506654,7.73786515 C31.4575192,7.7447678 31.4602607,7.74890938 31.4602607,7.74890938 C31.6590206,7.99740461 31.8413314,8.27074935 32.0044515,8.57032415 C34.2127422,12.6470263 32.7556268,15.652438 31.3437463,17.3394445 L36.0180302,20.8653156 L36.0180302,22.7055608 L44.2932946,30.091391 C44.9581121,30.683638 45.1788041,31.6320614 44.8484515,32.4603788 L42.1782154,39.1338561 C42.0082415,39.5604396 41.5997557,39.8393064 41.1432933,39.843448 C40.8321313,39.7992711 40.5223401,39.7675189 40.2180319,39.7440499 C40.2248857,41.1549506 39.7273006,47.5053841 30.5199209,50.5315037 C30.5199209,50.5315037 31.4383286,49.2821249 31.7659397,48.000994 C31.7659397,48.000994 30.1169181,49.3442487 27.6468127,50.427964 C28.5542543,52.3496604 30.0703124,54.3238169 32.5692037,55.9362748 C40.1686846,60.8412944 35.9097403,70.7962891 35.9097403,70.7962891 C35.9097403,70.7962891 37.3956417,61.1381081 30.4527538,58.6876691 C29.7934193,58.4543597 29.1889152,58.183776 28.6337583,57.8855818 C31.64924,63.6749048 28.1976811,74.6970417 28.1038451,74.9938801 L28.102,74.996 Z"/></clipPath><clipPath id="i10"><path d="M45,0 L45,75 L0,75 L0,0 L45,0 Z"/></clipPath><clipPath id="i11"><path d="M9.08470215,31.1133242 C9.07565408,30.914643 9.06392627,30.6450619 9.05030689,30.3183086 C9.06937403,31.0662363 9.10206056,31.4960157 9.10206056,31.4960157 C6.10851916,28.3689523 5.23824029,16.3909459 10.5470776,8.88515654 C12.2685682,6.45299612 14.5430059,4.78690344 16.8501302,3.64547646 C15.6652434,4.13665286 14.3754874,4.724111 12.9781383,5.4273863 C4.03701031,9.92332485 0.540913509,23.9930171 0.540913509,23.9930171 C-1.31268515,20.0454658 1.61956901,8.41770173 8.99991515,3.05662293 C13.917876,-0.515569086 20.0384288,-0.250445459 23.7360925,0.380269693 C23.791932,0.388642018 23.8491335,0.399805119 23.9063349,0.409572831 C23.9798796,0.422131319 24.0520623,0.436085194 24.1228832,0.448643681 C27.3183468,1.08955123 31.2922266,0.543015664 32.5778377,0.333531609 L32.7579831,0.303478424 C32.9147771,0.276670744 33,0.260266368 33,0.260266368 C33,0.260266368 29.6948059,3.12407775 26.4817778,6.29055786 L26.0237676,6.74469458 C24.8821439,7.88380106 23.7729111,9.04595722 22.8508324,10.1144929 C15.2784528,18.8886896 20.2508913,29.5061931 20.4197717,29.8606215 C23.5440592,36.2235886 27.4432899,41 27.4432899,41 C17.0271822,36.0073035 13.6972419,23.3176495 13.6972419,23.3176495 L10.8289989,32.4392976 C10.2639554,16.6759951 17.5958791,9.75444763 17.911492,9.46403689 L17.921976,9.45447465 C18.0922183,9.26191117 18.2665465,9.07213847 18.4435985,8.88515654 L18.1247564,9.08537754 C8.98412684,14.9834207 9.01252722,28.7795869 9.0872229,31.1468448 L9.088,31.192 L9.08470215,31.1133242 Z"/></clipPath><clipPath id="i12"><path d="M33,0 L33,41 L0,41 L0,0 L33,0 Z"/></clipPath><clipPath id="i13"><path d="M5.92909858,0 L10,13.1402769 L10,14 L9.02477596,14 L7.71085925,9.68031306 L2.19425409,9.68031306 L0.881655245,14 L0,14 L0,13.1402769 L4.05245124,0 L5.92909858,0 Z M5.10279389,1.12101144 L4.80231945,1.12101144 L2.5131787,8.64077865 L7.39193463,8.64077865 L5.10279389,1.12101144 Z"/></clipPath><clipPath id="i14"><path d="M10,0 L10,14 L0,14 L0,0 L10,0 Z"/></clipPath><clipPath id="i15"><path d="M5.01943285,0 C6.33079027,0 7.39743774,0.288506192 8.21649633,0.847910217 C9.03699439,1.40731424 9.63005614,2.08184985 10,2.85255418 L10,5.03192724 L8.77069239,5.03192724 L8.77069239,3.20065789 C8.50295091,2.56404799 8.03224413,2.04256966 7.39743774,1.61861455 C6.74247877,1.19465944 5.94213329,0.982004644 5.01943285,0.982004644 C4.09817187,0.982004644 3.29926587,1.19465944 2.66445948,1.61861455 C2.00806103,2.04256966 1.53591478,2.56404799 1.26961278,3.20065789 L1.26961278,10.7790248 C1.53591478,11.4142802 2.00806103,11.9357585 2.66445948,12.3597136 C3.29926587,12.7836687 4.09817187,12.994969 5.01943285,12.994969 C5.94213329,12.994969 6.74247877,12.7836687 7.39743774,12.3597136 C8.03224413,11.9357585 8.50295091,11.4142802 8.77069239,10.7790248 L8.77069239,8.75406347 L10,8.75406347 L10,11.125774 C9.63005614,11.8978328 9.03699439,12.5723684 8.21649633,13.130418 C7.39743774,13.7101393 6.33079027,14 5.01943285,14 C3.68792284,14 2.62271484,13.7101393 1.7820642,13.130418 C0.94141356,12.5520511 0.346912336,11.8585526 0,11.0688854 L0,2.91079721 C0.346912336,2.11977554 0.963005614,1.44523994 1.80221678,0.866873065 C2.64286742,0.288506192 3.70807543,0 5.01943285,0 Z"/></clipPath><clipPath id="i16"><path d="M5.02087232,0 C6.33222974,0 7.39887721,0.288506192 8.2179358,0.847910217 C9.03699439,1.40731424 9.63149561,2.08184985 10,2.85255418 L10,5.03192724 L8.77213186,5.03192724 L8.77213186,3.20065789 C8.50439038,2.56404799 8.0336836,2.04256966 7.39887721,1.61861455 C6.74247877,1.19465944 5.94357277,0.982004644 5.02087232,0.982004644 C4.09961134,0.982004644 3.29926587,1.19465944 2.66445948,1.61861455 C2.0095005,2.04256966 1.53591478,2.56404799 1.27105225,3.20065789 L1.27105225,10.7790248 C1.53591478,11.4142802 2.0095005,11.9357585 2.66445948,12.3597136 C3.29926587,12.7836687 4.09961134,12.994969 5.02087232,12.994969 C5.94357277,12.994969 6.74247877,12.7836687 7.39887721,12.3597136 C8.0336836,11.9357585 8.50439038,11.4142802 8.77213186,10.7790248 L8.77213186,8.75406347 L10,8.75406347 L10,11.125774 C9.63149561,11.8978328 9.03699439,12.5723684 8.2179358,13.130418 C7.39887721,13.7101393 6.33222974,14 5.02087232,14 C3.68936231,14 2.62271484,13.7101393 1.7820642,13.130418 C0.94285303,12.5520511 0.348351807,11.8585526 0,11.0688854 L0,2.91079721 C0.348351807,2.11977554 0.963005614,1.44523994 1.80365625,0.866873065 C2.6443069,0.288506192 3.7095149,0 5.02087232,0 Z"/></clipPath><clipPath id="i17"><path d="M7.82277177,0 L7.82277177,1.03953442 L1.21174652,1.03953442 L1.21174652,6.25968292 L7.3735188,6.25968292 L7.3735188,7.27955047 L1.21174652,7.27955047 L1.21174652,12.9590608 L8,12.9590608 L8,14 L0,14 L0,0 L7.82277177,0 Z"/></clipPath><clipPath id="i18"><path d="M8,0 L8,14 L0,14 L0,0 L8,0 Z"/></clipPath><clipPath id="i19"><path d="M4.51010933,0 C5.6989666,0 6.65867905,0.250580495 7.38789876,0.770704334 C8.11711847,1.29218266 8.65493485,1.87054954 9,2.50715944 L9,4.18401703 L7.84888423,4.18401703 L7.84888423,2.85390867 C7.59952074,2.37171053 7.19649543,1.92879257 6.62093755,1.54276316 C6.04537966,1.17569659 5.3350307,0.983359133 4.51010933,0.983359133 C3.68518796,0.983359133 2.974839,1.17569659 2.37906245,1.56172601 C1.78598173,1.94775542 1.38160851,2.37171053 1.15111577,2.85390867 L1.15111577,4.31946594 C1.36273776,4.70549536 1.6700614,5.03328173 2.05421597,5.28386223 C2.41815186,5.53444272 3.03279916,5.78502322 3.89546203,6.01664087 L5.37412011,6.40267028 C6.15995207,6.61397059 6.77459937,6.8252709 7.25310768,7.07720588 C7.73431182,7.32643189 8.07937697,7.59868421 8.32874045,7.84791022 C8.57810394,8.0998452 8.78972592,8.40731424 9,8.75406347 L9,11.4738777 C8.6360641,12.128096 8.09824772,12.7078173 7.38789876,13.2279412 C6.65867905,13.7494195 5.6989666,14 4.51010933,14 C3.3010334,14 2.3224502,13.7291022 1.61210124,13.2089783 C0.882881534,12.6875 0.345065149,12.1104876 0,11.4738777 L0,9.58301084 L1.15111577,9.58301084 L1.15111577,11.125774 C1.40182717,11.6079721 1.80350457,12.0522446 2.39928111,12.4179567 C2.974839,12.8039861 3.68518796,12.9963235 4.51010933,12.9963235 C5.3350307,12.9963235 6.04537966,12.8039861 6.62093755,12.4179567 C7.19649543,12.0332817 7.59952074,11.6079721 7.84888423,11.125774 L7.84888423,9.17937307 C7.61839149,8.7743808 7.31106784,8.44523994 6.94713195,8.17569659 C6.58184814,7.90615325 5.9874195,7.6745356 5.18136888,7.46323529 L3.6649693,7.05688854 C2.87913734,6.86455108 2.24561929,6.65189628 1.76576307,6.40267028 C1.28725476,6.15073529 0.921970945,5.90150929 0.672607458,5.6495743 C0.423243972,5.39899381 0.211621986,5.09017028 0,4.74342105 L0,2.50715944 C0.345065149,1.87054954 0.882881534,1.29218266 1.61210124,0.770704334 C2.3224502,0.250580495 3.3010334,0 4.51010933,0 Z"/></clipPath><clipPath id="i20"><path d="M9,0 L9,14 L0,14 L0,0 L9,0 Z"/></clipPath><clipPath id="i21"><path d="M4.50876142,0 C5.6989666,0 6.65867905,0.250580495 7.38789876,0.770704334 C8.11711847,1.29218266 8.65358694,1.87054954 9,2.50715944 L9,4.18401703 L7.84888423,4.18401703 L7.84888423,2.85390867 C7.59817283,2.37171053 7.19514752,1.92879257 6.62093755,1.54276316 C6.04537966,1.17569659 5.3350307,0.983359133 4.50876142,0.983359133 C3.68518796,0.983359133 2.974839,1.17569659 2.37906245,1.56172601 C1.78463382,1.94775542 1.38160851,2.37171053 1.15111577,2.85390867 L1.15111577,4.31946594 C1.36273776,4.70549536 1.6700614,5.03328173 2.05286805,5.28386223 C2.41680395,5.53444272 3.03279916,5.78502322 3.89546203,6.01664087 L5.3727722,6.40267028 C6.15995207,6.61397059 6.77459937,6.8252709 7.25310768,7.07720588 C7.73431182,7.32643189 8.07937697,7.59868421 8.32739254,7.84791022 C8.57810394,8.0998452 8.78837801,8.40731424 9,8.75406347 L9,11.4738777 C8.6360641,12.128096 8.09824772,12.7078173 7.38789876,13.2279412 C6.65867905,13.7494195 5.6989666,14 4.50876142,14 C3.3010334,14 2.32110229,13.7291022 1.61210124,13.2089783 C0.882881534,12.6875 0.345065149,12.1104876 0,11.4738777 L0,9.58301084 L1.15111577,9.58301084 L1.15111577,11.125774 C1.40182717,11.6079721 1.80350457,12.0522446 2.39928111,12.4179567 C2.974839,12.8039861 3.68518796,12.9963235 4.50876142,12.9963235 C5.3350307,12.9963235 6.04537966,12.8039861 6.62093755,12.4179567 C7.19514752,12.0332817 7.59817283,11.6079721 7.84888423,11.125774 L7.84888423,9.17937307 C7.61839149,8.7743808 7.31106784,8.44523994 6.94713195,8.17569659 C6.58184814,7.90615325 5.9874195,7.6745356 5.18136888,7.46323529 L3.6649693,7.05688854 C2.87778943,6.86455108 2.24561929,6.65189628 1.76576307,6.40267028 C1.28590684,6.15073529 0.920623034,5.90150929 0.672607458,5.6495743 C0.421896061,5.39899381 0.211621986,5.09017028 0,4.74342105 L0,2.50715944 C0.345065149,1.87054954 0.882881534,1.29218266 1.61210124,0.770704334 C2.32110229,0.250580495 3.3010334,0 4.50876142,0 Z"/></clipPath><clipPath id="i22"><path d="M5,0 C6.30590596,0 7.38818807,0.288506192 8.22391055,0.868227554 C9.06106651,1.44659443 9.65309633,2.12113003 10,2.9121517 L10,11.0688854 C9.65309633,11.8585526 9.06106651,12.5534056 8.22391055,13.1317724 C7.38818807,13.7101393 6.32740826,14 5,14 C3.67259174,14 2.61181193,13.7101393 1.77608945,13.1317724 C0.938933486,12.5534056 0.34690367,11.8585526 0,11.0688854 L0,2.9121517 C0.34690367,2.12113003 0.959002294,1.44659443 1.79615826,0.868227554 C2.63331422,0.288506192 3.69409404,0 5,0 Z M5,0.983359133 C4.08113532,0.983359133 3.28555046,1.19601393 2.65194954,1.61996904 C1.9997133,2.04392415 1.5309633,2.56540248 1.26576835,3.20201238 L1.26576835,10.7790248 C1.5309633,11.4156347 1.9997133,11.937113 2.65194954,12.3597136 C3.28555046,12.7850232 4.08113532,12.9963235 5,12.9963235 C5.91886468,12.9963235 6.71444954,12.7850232 7.36668578,12.3597136 C8.0002867,11.937113 8.4690367,11.4156347 8.73423165,10.7790248 L8.73423165,3.20201238 C8.4690367,2.56540248 8.0002867,2.04392415 7.36668578,1.61996904 C6.71444954,1.19601393 5.91886468,0.983359133 5,0.983359133 Z"/></clipPath><clipPath id="i23"><path d="M1.2547706,0 L1.2547706,12.9604656 L7,12.9604656 L7,14 L0,14 L0,0 L1.2547706,0 Z"/></clipPath><clipPath id="i24"><path d="M7,0 L7,14 L0,14 L0,0 L7,0 Z"/></clipPath><clipPath id="i25"><path d="M1.2683137,0 L1.2683137,10.6999606 C1.53404194,11.3288022 1.9836254,11.8597321 2.63860959,12.2899921 C3.27348463,12.7423168 4.06923298,12.9588258 4.98994542,12.9588258 C5.91065786,12.9588258 6.70784257,12.7423168 7.36139041,12.3106777 C7.99626544,11.8790386 8.46595806,11.3481087 8.7316863,10.6999606 L8.7316863,0 L10,0 L10,11.0157604 C9.65239874,11.81974 9.0591784,12.5258077 8.22033898,13.1146572 C7.38293594,13.7048857 6.32002298,14 4.98994542,14 C3.66130422,14 2.59839127,13.7048857 1.77966102,13.1146572 C0.942257972,12.5258077 0.349037633,11.81974 0,11.0157604 L0,0 L1.2683137,0 Z"/></clipPath><clipPath id="i26"><path d="M9,0 L9,1.03953442 L5.07688895,1.03953442 L5.07688895,14 L3.90448026,14 L3.90448026,1.03953442 L0,1.03953442 L0,0 L9,0 Z"/></clipPath><clipPath id="i27"><path d="M286,0 L286,75 L0,75 L0,0 L286,0 Z"/></clipPath><clipPath id="i28"><path d="M0.9415,0 L0.9415,14 L0.0585,14 L0.0585,0 L0.9415,0 Z"/></clipPath><clipPath id="i29"><path d="M1.88657737,0 L8.47962382,12.260887 L8.80450271,12.260887 L8.80450271,0 L10,0 L10,14 L8.11484753,14 L1.52180108,1.74192254 L1.19834711,1.74192254 L1.19834711,14 L0,14 L0,0 L1.88657737,0 Z"/></clipPath><clipPath id="i30"><path d="M4.50876142,0 C5.6989666,0 6.65867905,0.250580495 7.38789876,0.770704334 C8.11711847,1.29218266 8.65358694,1.87054954 9,2.50715944 L9,4.18401703 L7.84888423,4.18401703 L7.84888423,2.85390867 C7.59817283,2.37171053 7.19514752,1.92879257 6.62093755,1.54276316 C6.04537966,1.17569659 5.3350307,0.983359133 4.50876142,0.983359133 C3.68518796,0.983359133 2.974839,1.17569659 2.37906245,1.56172601 C1.78463382,1.94775542 1.38160851,2.37171053 1.15111577,2.85390867 L1.15111577,4.31946594 C1.36273776,4.70549536 1.6700614,5.03328173 2.05286805,5.28386223 C2.41680395,5.53444272 3.03279916,5.78502322 3.89546203,6.01664087 L5.3727722,6.40267028 C6.15995207,6.61397059 6.77459937,6.8252709 7.25310768,7.07720588 C7.73431182,7.32643189 8.07937697,7.59868421 8.32739254,7.84791022 C8.57810394,8.0998452 8.78837801,8.40731424 9,8.75406347 L9,11.4738777 C8.6360641,12.128096 8.09689981,12.7078173 7.38789876,13.2279412 C6.65867905,13.7494195 5.6989666,14 4.50876142,14 C3.3010334,14 2.32110229,13.7291022 1.61210124,13.2089783 C0.882881534,12.6875 0.345065149,12.1104876 0,11.4738777 L0,9.58301084 L1.15111577,9.58301084 L1.15111577,11.125774 C1.40182717,11.6079721 1.80350457,12.0522446 2.39928111,12.4179567 C2.974839,12.8039861 3.68518796,12.9963235 4.50876142,12.9963235 C5.3350307,12.9963235 6.04537966,12.8039861 6.62093755,12.4179567 C7.19514752,12.0332817 7.59817283,11.6079721 7.84888423,11.125774 L7.84888423,9.17937307 C7.61839149,8.7743808 7.31106784,8.44523994 6.94713195,8.17569659 C6.58184814,7.90615325 5.9874195,7.6745356 5.18136888,7.46323529 L3.6649693,7.05688854 C2.87778943,6.86455108 2.24561929,6.65189628 1.76576307,6.40267028 C1.28590684,6.15073529 0.920623034,5.90150929 0.672607458,5.6495743 C0.421896061,5.39899381 0.211621986,5.09017028 0,4.74342105 L0,2.50715944 C0.345065149,1.87054954 0.882881534,1.29218266 1.61210124,0.770704334 C2.32110229,0.250580495 3.3010334,0 4.50876142,0 Z"/></clipPath><clipPath id="i31"><path d="M22,0 L22,9.82438236 L13.3424726,9.82438236 L13.3424726,7.67853042 L8.65616277,7.67853042 L8.65616277,24.3214696 L13.3424726,24.3214696 L13.3424726,19.7916401 L11.142609,19.7916401 L11.142609,12.1607348 L22,12.1607348 L22,32 L3.68190559,32 C3.32981825,32 2.94770796,31.8734532 2.53421004,31.6176383 C2.11934744,31.3645448 1.72086099,31.0447761 1.33738602,30.6637751 C0.955275727,30.2827742 0.637305378,29.8854446 0.382110291,29.4717864 C0.126915204,29.0581282 0,28.6934558 0,28.3750478 L0,3.62495216 C0,3.30790492 0.126915204,2.94051112 0.382110291,2.52685291 C0.637305378,2.11455543 0.955275727,1.71722584 1.33738602,1.33486414 C1.72086099,0.953863163 2.11934744,0.63681592 2.53421004,0.381000978 C2.94770796,0.127907471 3.32981825,0 3.68190559,0 L22,0 Z"/></clipPath><clipPath id="i32"><path d="M22,0 L22,32 L0,32 L0,0 L22,0 Z"/></clipPath><clipPath id="i33"><path d="M10.5860355,0 L10.5860355,24.3225038 L15.4125594,24.3225038 L15.4125594,0 L26,0 L26,6.48545671 C25.8356031,6.70862392 25.557393,6.94675965 25.1625594,7.2012247 C24.769131,7.45568974 24.4909209,7.61353972 24.326524,7.67749617 L24.326524,28.3762545 C24.326524,28.694676 24.1944444,29.0593638 23.9316904,29.4730396 C23.6689364,29.8867154 23.3415478,30.2840619 22.9467142,30.6650791 C22.5532858,31.0460963 22.1345655,31.3645178 21.6919585,31.6189828 C21.2479464,31.8734479 20.8629486,32 20.5341548,32 L5.41666667,32 C5.08787289,32 4.70990056,31.8734479 4.28415478,31.6189828 C3.85700389,31.3645178 3.44671422,31.0460963 3.05328578,30.6650791 C2.65845223,30.2840619 2.32965845,29.8867154 2.06830955,29.4730396 C1.80415045,29.0593638 1.67488111,28.694676 1.67488111,28.3762545 L1.67488111,7.67749617 C1.50907912,7.61353972 1.230869,7.45568974 0.837440553,7.2012247 C0.442607004,6.94675965 0.162991786,6.70862392 0,6.48545671 L0,0 L10.5860355,0 Z"/></clipPath><clipPath id="i34"><path d="M26,0 L26,32 L0,32 L0,0 L26,0 Z"/></clipPath><clipPath id="i35"><path d="M20.3102523,0 C20.5373304,0.191861207 20.6682834,0.319768678 20.7003251,0.382361696 C20.7658016,0.446315431 20.8466023,0.63681592 20.9455136,0.955223881 C21.0430318,1.27227112 21.1071152,1.49542884 21.1391569,1.62197559 L25.094216,23.5118425 C25.1596925,23.7662967 25.2586038,24.0370796 25.3881637,24.3214696 C25.5177235,24.3854233 25.7796295,24.5527916 26.1697023,24.8235744 C26.559775,25.0929966 26.8356122,25.3243186 27,25.5134583 L27,32 L17.4292864,32 L16.4527114,25.4182081 C16.4527114,25.3556151 16.3551932,25.2848578 16.1587637,25.2045754 C15.9651205,25.1256538 15.8007327,25.0685036 15.6725659,25.0372071 L11.3274341,25.0372071 C11.1964811,25.0685036 11.0334864,25.1256538 10.83845,25.2045754 C10.6420205,25.2848578 10.5445023,25.3556151 10.5445023,25.4182081 L9.56932047,32 L0,32 L0,25.5134583 C0.161601569,25.3243186 0.437438729,25.0929966 0.828904597,24.8235744 C1.22037047,24.5527916 1.47949022,24.3854233 1.61044322,24.3214696 C1.7400031,24.0370796 1.83752128,23.7662967 1.90299778,23.5118425 L5.85805686,1.62197559 C5.89009855,1.49542884 5.95557505,1.27227112 6.05309324,0.955223881 C6.15061142,0.63681592 6.23141221,0.446315431 6.29688871,0.382361696 C6.33032351,0.319768678 6.45988339,0.191861207 6.68696146,0 L20.3102523,0 Z M13.6205046,7.96428116 L13.3767091,7.96428116 L11.7175068,17.7886635 L15.232341,17.7886635 L13.6205046,7.96428116 Z"/></clipPath><clipPath id="i36"><path d="M27,0 L27,32 L0,32 L0,0 L27,0 Z"/></clipPath><clipPath id="i37"><path d="M20.5341548,0 C20.8615435,0 21.2479464,0.127907471 21.6905534,0.381000978 C22.1345655,0.63681592 22.5532858,0.953863163 22.9481193,1.33622486 C23.3415478,1.71722584 23.6689364,2.11455543 23.9316904,2.52821363 C24.1944444,2.94051112 24.3251189,3.30790492 24.3251189,3.62495216 L24.3251189,12.5430965 C24.3251189,12.8288472 24.2351924,13.1458945 24.0553394,13.4955989 C23.8740813,13.8466641 23.6450497,14.1882043 23.3654345,14.5215801 C23.0858193,14.854956 22.7668612,15.1583961 22.4057501,15.4278182 C22.0432339,15.6972403 21.698984,15.8972658 21.3715953,16.0238126 C21.698984,16.1503593 22.0277778,16.3422205 22.3565716,16.595314 C22.6839602,16.851129 22.9874622,17.1287154 23.2670774,17.4307947 C23.5452875,17.7328741 23.7841548,18.0512821 23.980869,18.3846579 C24.1789883,18.7180338 24.2928016,19.0282774 24.3251189,19.3153889 L24.3251189,24.3214696 C24.4895158,24.3854233 24.769131,24.5446273 25.1639645,24.7990815 C25.557393,25.0535357 25.8356031,25.2916614 26,25.5134583 L26,32 L15.4125594,32 L15.4125594,19.7916401 L10.5874406,19.7916401 L10.5874406,32 L0,32 L0,25.5134583 C0.162991786,25.3243186 0.449632512,25.0929966 0.861327281,24.8222137 C1.27161695,24.5527916 1.54139645,24.3854233 1.67347601,24.3214696 L1.67347601,7.67853042 C1.50907912,7.61457669 1.230869,7.45673343 0.836035452,7.20091848 C0.442607004,6.94782498 0.162991786,6.70969937 0,6.48654165 L0,0 L20.5341548,0 Z M15.4125594,7.67853042 L10.5860355,7.67853042 L10.5860355,12.1144704 L15.4125594,12.1144704 L15.4125594,7.67853042 Z"/></clipPath><clipPath id="i38"><path d="M20.258534,0 C20.5829146,0 20.9627448,0.127907471 21.4007971,0.381000978 C21.8374632,0.63681592 22.2519494,0.953863163 22.640097,1.33622486 C23.0282447,1.71722584 23.3526252,2.11455543 23.6104661,2.52821363 C23.8710795,2.94051112 24,3.30790492 24,3.62495216 L24,28.3764086 C24,28.6934558 23.8710795,29.0594889 23.6104661,29.4717864 C23.3526252,29.8854446 23.0282447,30.2827742 22.640097,30.6637751 C22.2519494,31.0461368 21.8374632,31.3645448 21.4007971,31.618999 C20.9627448,31.8734532 20.5829146,32 20.258534,32 L0,32 L0,25.5134583 C0.16080402,25.3243186 0.443597297,25.0929966 0.849766072,24.8222137 C1.25454861,24.5527916 1.52209322,24.3854233 1.65239993,24.3214696 L1.65239993,7.67853042 C1.48882343,7.61457669 1.2143476,7.45673343 0.826199965,7.20091848 C0.438052331,6.94782498 0.16080402,6.70969937 0,6.48654165 L0,0 L20.258534,0 Z M15.2070698,7.67853042 L10.4453301,7.67853042 L10.4453301,24.3214696 L15.2070698,24.3214696 L15.2070698,7.67853042 Z"/></clipPath><clipPath id="i39"><path d="M24,0 L24,32 L0,32 L0,0 L24,0 Z"/></clipPath><clipPath id="i40"><path d="M12,0 L12,6.48654165 C11.8391015,6.67568142 11.5585606,6.90700344 11.1570021,7.17642556 C10.7540683,7.44856912 10.4900298,7.61457669 10.3621361,7.67853042 L10.3621361,24.3214696 C10.4900298,24.3854233 10.7540683,24.5527916 11.1570021,24.8222137 C11.5585606,25.0916358 11.8391015,25.3229579 12,25.5134583 L12,32 L0,32 L0,25.5134583 C0.159523264,25.3229579 0.440064176,25.0916358 0.842997937,24.8222137 C1.2445565,24.5527916 1.5099702,24.3854233 1.63786386,24.3214696 L1.63786386,7.67853042 C1.5099702,7.61457669 1.2445565,7.44856912 0.842997937,7.17642556 C0.440064176,6.90700344 0.159523264,6.67568142 0,6.48654165 L0,0 L12,0 Z"/></clipPath><clipPath id="i41"><path d="M12,0 L12,32 L0,32 L0,0 L12,0 Z"/></clipPath><clipPath id="i42"><path d="M20.3102523,0 C20.5373304,0.191861207 20.6682834,0.319768678 20.7003251,0.382361696 C20.7658016,0.446315431 20.8479955,0.63681592 20.9455136,0.955223881 C21.0430318,1.27227112 21.1071152,1.49542884 21.1391569,1.62197559 L25.094216,23.5118425 C25.1596925,23.7662967 25.2586038,24.0370796 25.3881637,24.3214696 C25.5177235,24.3854233 25.7796295,24.5527916 26.1697023,24.8235744 C26.559775,25.0929966 26.8356122,25.3243186 27,25.5134583 L27,32 L17.4292864,32 L16.4527114,25.4182081 C16.4527114,25.3556151 16.3551932,25.2848578 16.1601569,25.2045754 C15.9651205,25.1256538 15.8007327,25.0685036 15.6725659,25.0372071 L11.3274341,25.0372071 C11.1964811,25.0685036 11.0334864,25.1256538 10.83845,25.2045754 C10.6420205,25.2848578 10.5458955,25.3556151 10.5458955,25.4182081 L9.56932047,32 L0,32 L0,25.5134583 C0.161601569,25.3243186 0.438831846,25.0929966 0.828904597,24.8235744 C1.22037047,24.5527916 1.47949022,24.3854233 1.61044322,24.3214696 C1.7400031,24.0370796 1.83752128,23.7662967 1.90299778,23.5118425 L5.85805686,1.62197559 C5.89009855,1.49542884 5.95557505,1.27227112 6.05309324,0.955223881 C6.15200454,0.63681592 6.23141221,0.446315431 6.29688871,0.382361696 C6.33032351,0.319768678 6.45988339,0.191861207 6.68696146,0 L20.3102523,0 Z M13.6218977,7.96428116 L13.3767091,7.96428116 L11.7175068,17.7886635 L15.232341,17.7886635 L13.6218977,7.96428116 Z"/></clipPath><clipPath id="i43"><path d="M9.02640688,0 L17.5668084,13.5922099 L17.5668084,0 L28,0 L28,6.48654165 C27.8379982,6.70969937 27.5638414,6.94782498 27.1747602,7.20091848 C26.7870636,7.45673343 26.5115221,7.61457669 26.350905,7.67853042 L26.350905,24.3214696 C26.478291,24.3854233 26.7469093,24.5527916 27.1512214,24.8235744 C27.5555336,25.0929966 27.8379982,25.3243186 28,25.5134583 L28,32 L18.9735931,32 L10.4331916,18.4091508 L10.4331916,32 L0,32 L0,25.5134583 C0.16200178,25.3243186 0.444466423,25.0929966 0.850163189,24.8235744 C1.25447532,24.5527916 1.5203244,24.3854233 1.65047968,24.3214696 L1.65047968,7.67853042 C1.4884779,7.61457669 1.21293641,7.45673343 0.825239838,7.20091848 C0.43754327,6.94782498 0.16200178,6.70969937 0,6.48654165 L0,0 L9.02640688,0 Z"/></clipPath><clipPath id="i44"><path d="M28,0 L28,32 L0,32 L0,0 L28,0 Z"/></clipPath><clipPath id="i45"><path d="M3.48662328,0 L4.39624006,2.46877673 L4.48300795,2.46877673 L5.38539407,0 L6,0 L6,3 L5.64569776,3 L5.64569776,0.423438837 L5.55748373,0.423438837 L4.60448301,3 L4.24873463,3 L3.3044107,0.423438837 L3.20751988,0.423438837 L3.20751988,3 L2.86189443,3 L2.86189443,0 L3.48662328,0 Z M2.46276211,0 L2.46276211,0.260479042 L1.41287057,0.260479042 L1.41287057,3 L1.04844541,3 L1.04844541,0.260479042 L0,0.260479042 L0,0 L2.46276211,0 Z"/></clipPath></defs><g transform="translate(0.0034843205000356647 0.0)"><g transform="translate(2.0 39.0)"><g clip-path="url(#i0)"><polygon points="0.484257684,0.4195 0.515742316,0.4195 0.515742316,0.5805 0.484257684,0.5805 0.484257684,0.4195" stroke="none" fill="#060000"/></g></g><g transform="translate(1.0 8.999999998843435)"><g clip-path="url(#i1)"><g transform="translate(0.0 1.1565646218514303e-09)"><g clip-path="url(#i2)"><polygon points="0,0 36,0 36,20 0,20 0,0" stroke="none" fill="#5E859F"/></g></g></g></g><g transform="translate(16.0 5.999999998117645)"><g clip-path="url(#i3)"><g transform="translate(0.0 1.882350275650424e-09)"><g clip-path="url(#i4)"><polygon points="0,0 17,0 17,5 0,5 0,0" stroke="none" fill="#5E859F"/></g></g></g></g><g transform="translate(0.0 21.0)"><g clip-path="url(#i5)"><g transform="translate(-0.0005507651624583332 0.0)"><g clip-path="url(#i6)"><g transform="translate(0.0005507651620000331 0.0)"><g clip-path="url(#i5)"><polygon points="4.58300065e-13,0 36,0 36,19 4.58300065e-13,19 4.58300065e-13,0" stroke="none" fill="#5E859F"/></g></g></g></g></g></g><g transform="translate(4.0 16.0)"><g clip-path="url(#i0)"><polygon points="0.471,0.4825 0.529,0.4825 0.529,0.5175 0.471,0.5175 0.471,0.4825" stroke="none" fill="#5E859F"/></g></g><g transform="translate(49.0 25.0)"><g clip-path="url(#i7)"><g clip-path="url(#i8)"><polygon points="0,0 6,0 6,3 0,3 0,0" stroke="none" fill="#5E859F"/></g></g></g><g transform="translate(23.000000000000007 0.0)"><g clip-path="url(#i9)"><g clip-path="url(#i10)"><polygon points="0,0 45,0 45,75 0,75 0,0" stroke="none" fill="#5E859F"/></g></g></g><g transform="translate(9.0 62.0)"><g clip-path="url(#i0)"><polygon points="0.4955,0.402 0.5045,0.402 0.5045,0.598 0.4955,0.598 0.4955,0.402" stroke="none" fill="#5E859F"/></g></g><g transform="translate(0.9999999986279526 30.99999999994813)"><g transform=""><g clip-path="url(#i11)"><g transform=""><g transform="translate(1.372047364611717e-09 5.1869619710487314e-11)"><g clip-path="url(#i12)"><polygon points="0,0 33,0 33,41 0,41 0,0" stroke="none" fill="#5E859F"/></g></g></g></g></g></g><g transform="translate(74.0 57.0)"><g clip-path="url(#i13)"><g clip-path="url(#i14)"><polygon points="0,0 10,0 10,14 0,14 0,0" stroke="none" fill="#5E859F"/></g></g></g><g transform="translate(88.0 57.0)"><g clip-path="url(#i15)"><g clip-path="url(#i14)"><polygon points="0,0 10,0 10,14 0,14 0,0" stroke="none" fill="#5E859F"/></g></g></g><g transform="translate(103.0 57.0)"><g clip-path="url(#i16)"><g clip-path="url(#i14)"><polygon points="0,0 10,0 10,14 0,14 0,0" stroke="none" fill="#5E859F"/></g></g></g><g transform="translate(118.0 57.0)"><g clip-path="url(#i17)"><g clip-path="url(#i18)"><polygon points="0,0 8,0 8,14 0,14 0,0" stroke="none" fill="#5E859F"/></g></g></g><g transform="translate(130.0 57.0)"><g clip-path="url(#i19)"><g clip-path="url(#i20)"><polygon points="0,0 9,0 9,14 0,14 0,0" stroke="none" fill="#5E859F"/></g></g></g><g transform="translate(144.0 57.0)"><g clip-path="url(#i21)"><g clip-path="url(#i20)"><polygon points="0,0 9,0 9,14 0,14 0,0" stroke="none" fill="#5E859F"/></g></g></g><g transform="translate(165.0 57.0)"><g clip-path="url(#i21)"><g clip-path="url(#i20)"><polygon points="0,0 9,0 9,14 0,14 0,0" stroke="none" fill="#5E859F"/></g></g></g><g transform="translate(178.0 57.0)"><g clip-path="url(#i22)"><g clip-path="url(#i14)"><polygon points="0,0 10,0 10,14 0,14 0,0" stroke="none" fill="#5E859F"/></g></g></g><g transform="translate(193.0 57.0)"><g clip-path="url(#i23)"><g clip-path="url(#i24)"><polygon points="0,0 7,0 7,14 0,14 0,0" stroke="none" fill="#5E859F"/></g></g></g><g transform="translate(204.0 57.0)"><g clip-path="url(#i25)"><g clip-path="url(#i14)"><polygon points="0,0 10,0 10,14 0,14 0,0" stroke="none" fill="#5E859F"/></g></g></g><g transform="translate(219.0 57.0)"><g clip-path="url(#i26)"><g clip-path="url(#i20)"><polygon points="0,0 9,0 9,14 0,14 0,0" stroke="none" fill="#5E859F"/></g></g></g><g clip-path="url(#i27)"><g transform="translate(74.0 17.0)"><g transform="translate(158.0 40.0)"><g clip-path="url(#i28)"><g clip-path="url(#i28)"><polygon points="0.0585,0 0.9415,0 0.9415,14 0.0585,14 0.0585,0" stroke="none" fill="#5E859F"/></g></g></g><g transform="translate(165.0 40.0)"><g clip-path="url(#i22)"><g clip-path="url(#i14)"><polygon points="0,0 10,0 10,14 0,14 0,0" stroke="none" fill="#5E859F"/></g></g></g><g transform="translate(179.0 40.0)"><g clip-path="url(#i29)"><g clip-path="url(#i14)"><polygon points="0,0 10,0 10,14 0,14 0,0" stroke="none" fill="#5E859F"/></g></g></g><g transform="translate(195.0 40.0)"><g clip-path="url(#i30)"><g clip-path="url(#i20)"><polygon points="0,0 9,0 9,14 0,14 0,0" stroke="none" fill="#5E859F"/></g></g></g><g clip-path="url(#i31)"><g clip-path="url(#i32)"><polygon points="0,0 22,0 22,32 0,32 0,0" stroke="none" fill="#403F41"/></g></g><g transform="translate(25.0 0.0)"><g clip-path="url(#i33)"><g clip-path="url(#i34)"><polygon points="0,0 26,0 26,32 0,32 0,0" stroke="none" fill="#403F41"/></g></g></g><g transform="translate(51.0 0.0)"><g clip-path="url(#i35)"><g clip-path="url(#i36)"><polygon points="0,0 27,0 27,32 0,32 0,0" stroke="none" fill="#403F41"/></g></g></g><g transform="translate(80.0 0.0)"><g clip-path="url(#i37)"><g clip-path="url(#i34)"><polygon points="0,0 26,0 26,32 0,32 0,0" stroke="none" fill="#403F41"/></g></g></g><g transform="translate(108.0 0.0)"><g clip-path="url(#i38)"><g clip-path="url(#i39)"><polygon points="0,0 24,0 24,32 0,32 0,0" stroke="none" fill="#403F41"/></g></g></g><g transform="translate(134.0 0.0)"><g clip-path="url(#i40)"><g clip-path="url(#i41)"><polygon points="0,0 12,0 12,32 0,32 0,0" stroke="none" fill="#403F41"/></g></g></g><g transform="translate(148.0 0.0)"><g clip-path="url(#i42)"><g clip-path="url(#i36)"><polygon points="0,0 27,0 27,32 0,32 0,0" stroke="none" fill="#403F41"/></g></g></g><g transform="translate(177.0 0.0)"><g clip-path="url(#i43)"><g clip-path="url(#i44)"><polygon points="0,0 28,0 28,32 0,32 0,0" stroke="none" fill="#403F41"/></g></g></g><g transform="translate(206.0 40.0)"><g clip-path="url(#i45)"><g clip-path="url(#i8)"><polygon points="0,0 6,0 6,3 0,3 0,0" stroke="none" fill="#403F41"/></g></g></g></g></g></g></svg>